<?xml version="1.0" standalone="no"?>
<!DOCTYPE svg PUBLIC "-//W3C//DTD SVG 20010904//EN"
 "http://www.w3.org/TR/2001/REC-SVG-20010904/DTD/svg10.dtd">
<svg version="1.0" xmlns="http://www.w3.org/2000/svg"
 width="520.000000pt" height="520.000000pt" viewBox="0 0 520.000000 520.000000"
 preserveAspectRatio="xMidYMid meet">
<metadata>
Created by potrace 1.11, written by Peter Selinger 2001-2013
</metadata>
<g transform="translate(0.000000,520.000000) scale(0.100000,-0.100000)"
fill="#000000" stroke="none">
<path d="M661 3774 c-83 -22 -147 -62 -226 -141 -75 -75 -172 -210 -200 -277
-15 -34 -15 -40 0 -62 28 -43 63 -30 100 37 13 24 29 43 35 41 6 -1 9 2 5 8
-8 13 14 52 25 45 6 -3 7 1 4 9 -3 9 -1 16 4 16 6 0 13 8 16 18 6 19 84 102
132 141 55 44 131 72 190 69 30 -2 54 -7 54 -13 0 -5 5 -3 10 5 7 11 10 11 10
2 0 -7 4 -11 9 -8 12 8 33 -19 23 -29 -4 -5 1 -5 10 -2 18 6 53 -37 43 -53 -3
-6 1 -7 9 -4 38 14 10 -7 -66 -51 -174 -101 -364 -340 -458 -577 -79 -200 -97
-416 -44 -552 14 -36 84 -137 84 -121 0 4 7 2 15 -5 8 -7 13 -16 10 -20 -2 -4
4 -15 14 -24 16 -15 19 -15 24 -2 4 11 1 13 -11 9 -9 -3 -14 -3 -10 1 10 12
42 14 56 3 8 -6 12 -5 12 4 0 8 6 5 14 -7 11 -14 11 -21 3 -27 -7 -5 -4 -6 8
-2 15 5 17 3 8 -6 -15 -15 -34 -3 -26 19 3 9 3 14 -2 10 -4 -4 -14 -3 -22 3
-8 8 -13 8 -13 1 0 -6 -3 -19 -6 -29 -5 -15 -4 -16 5 -3 8 10 13 12 19 4 9
-14 56 -39 48 -26 -9 14 18 22 35 10 12 -8 11 -9 -1 -5 -10 3 -16 -2 -17 -14
-2 -17 0 -17 13 -5 8 8 23 13 34 11 11 -2 18 0 15 6 -4 5 1 9 10 9 10 0 13 -5
9 -12 -4 -7 -3 -8 4 -4 14 8 -2 46 -19 46 -6 0 -8 -4 -5 -9 3 -5 0 -14 -8 -20
-10 -9 -15 -8 -19 3 -3 8 4 21 18 30 21 14 24 14 29 0 3 -9 11 -12 17 -8 7 4
9 3 5 -4 -3 -6 -1 -14 5 -18 8 -5 9 -3 4 6 -6 10 -4 12 8 7 11 -4 20 1 27 13
13 24 13 30 -1 30 -5 0 -7 -4 -4 -10 3 -5 0 -8 -7 -7 -7 2 -10 2 -5 0 4 -3 7
-9 7 -15 0 -6 -8 -4 -18 5 -10 10 -23 14 -28 10 -5 -5 -1 2 9 14 20 23 11 38
-13 22 -13 -7 -13 -9 -1 -9 8 0 11 -3 7 -7 -11 -11 -30 -10 -39 2 -5 6 -7 3
-3 -8 5 -16 -8 -25 -17 -9 -2 4 -2 1 -1 -5 4 -16 -1 -16 -28 -2 -15 8 -19 8
-14 0 4 -6 3 -11 -3 -11 -16 0 -24 20 -9 24 54 16 113 41 143 62 20 13 34 20
31 15 -4 -5 -1 -13 5 -17 8 -4 9 -3 5 4 -8 13 81 109 97 104 5 -2 7 4 4 12 -3
7 5 24 18 36 14 13 22 27 18 33 -3 6 -1 7 5 3 11 -6 13 -2 12 19 -1 12 31 36
40 30 13 -8 13 7 0 23 -5 7 -3 6 6 -2 16 -14 11 -41 -5 -31 -5 2 -21 -16 -37
-40 -15 -25 -31 -45 -35 -45 -4 0 -6 -11 -5 -24 2 -18 -1 -23 -13 -21 -10 2
-24 -9 -34 -27 -17 -29 -17 -30 0 -24 12 4 9 0 -6 -13 -23 -18 -23 -19 -5 -29
10 -6 13 -12 7 -12 -7 0 -12 -3 -12 -7 3 -20 -2 -24 -16 -13 -8 7 -15 18 -15
24 0 6 4 5 9 -3 5 -8 11 -9 15 -3 3 5 -1 15 -8 22 -12 9 -17 7 -25 -9 -9 -16
-7 -22 9 -34 11 -7 17 -16 14 -19 -3 -3 -17 6 -31 20 -17 17 -28 22 -31 14 -2
-7 -8 -10 -13 -6 -5 3 -9 0 -9 -5 0 -6 2 -11 4 -11 2 0 12 -3 22 -7 13 -5 15
-3 9 8 -8 12 -6 12 8 0 12 -10 14 -18 7 -31 -13 -24 -13 -30 1 -30 5 0 8 4 5
8 -2 4 -1 14 5 22 5 10 9 11 9 3 0 -7 11 -1 25 13 14 14 25 29 25 34 0 12 12
13 26 2 5 -4 -1 2 -14 14 -21 18 -22 22 -7 27 9 4 13 3 10 -3 -3 -6 1 -7 10
-4 9 4 12 11 8 18 -5 7 1 2 12 -11 12 -13 27 -23 35 -23 22 1 55 23 58 40 6
30 31 76 52 95 20 18 21 18 14 0 -4 -10 -17 -39 -29 -64 -12 -25 -25 -56 -29
-68 -4 -11 -13 -24 -21 -26 -7 -3 -11 -14 -9 -24 3 -10 -24 -74 -59 -143 -125
-247 -240 -391 -360 -450 -75 -36 -166 -48 -232 -30 -73 21 -147 96 -150 153
0 4 -7 12 -15 17 -8 5 -10 10 -5 10 6 0 16 -5 23 -12 9 -9 13 -7 18 5 3 9 11
17 16 17 6 0 5 -6 -2 -15 -6 -8 -9 -19 -5 -24 4 -7 -1 -9 -12 -5 -11 3 -9 0 5
-8 12 -8 19 -18 15 -23 -4 -4 -2 -5 5 -1 7 4 9 12 6 18 -4 6 -1 8 7 6 8 -3 13
-11 11 -17 -1 -7 2 -10 8 -6 6 3 8 10 5 15 -3 5 -1 11 5 15 5 3 10 1 10 -6 0
-7 3 -9 7 -5 4 4 -5 18 -21 33 -20 18 -25 28 -17 36 8 8 16 6 29 -8 16 -18 16
-18 -1 -6 -9 8 -20 11 -23 9 -3 -3 9 -16 26 -28 19 -14 30 -17 28 -8 -2 7 3
12 10 10 8 -1 11 2 7 8 -3 6 -11 8 -16 5 -5 -4 -9 3 -9 15 0 12 -4 19 -9 16
-5 -3 -14 0 -20 8 -9 10 -6 17 13 30 14 9 27 12 30 7 3 -5 -6 -12 -19 -15 -14
-4 -23 -11 -20 -17 5 -7 11 -6 20 1 10 8 15 8 21 -1 4 -8 3 -9 -4 -5 -16 10
-15 1 1 -12 10 -8 12 -1 12 34 0 32 -5 50 -17 58 -19 14 -25 32 -8 21 6 -3 10
-1 10 4 0 6 -4 11 -9 11 -5 0 -11 23 -15 51 -8 62 -45 103 -95 107 -139 11
-198 -260 -95 -436 26 -44 124 -151 124 -136 1 5 9 -2 20 -15 11 -12 17 -27
14 -32 -3 -5 0 -9 6 -9 7 0 10 7 7 15 -7 17 9 30 18 15 4 -6 11 -8 16 -5 5 3
6 -1 2 -10 -5 -13 -7 -14 -14 -3 -5 7 -9 9 -9 3 0 -5 4 -16 9 -24 7 -10 12 -8
26 10 14 20 16 21 10 4 -4 -11 -8 -28 -10 -38 -3 -15 -1 -16 10 -7 9 8 15 8
20 0 3 -6 11 -8 16 -5 5 4 9 0 9 -7 0 -10 2 -10 9 1 7 11 10 9 16 -9 7 -21 8
-22 17 -6 9 16 11 16 31 -1 11 -10 17 -13 14 -7 -4 7 0 17 8 24 8 7 15 18 15
24 -1 6 -9 1 -20 -12 -11 -13 -21 -18 -25 -12 -3 5 0 10 7 10 8 0 5 8 -8 20
-20 20 -61 19 -48 -1 3 -5 10 -7 15 -4 5 4 9 2 9 -4 0 -5 -9 -9 -19 -8 -11 0
-19 4 -18 7 1 3 -2 5 -6 5 -11 0 -30 35 -23 42 3 4 6 2 6 -3 0 -11 125 -10
152 1 10 4 23 5 30 2 8 -3 3 -9 -12 -15 -17 -7 -20 -11 -8 -11 10 -1 22 -9 27
-20 6 -10 18 -21 26 -25 10 -3 14 -2 10 5 -9 13 27 8 37 -6 5 -6 8 -5 8 3 0 7
5 10 12 6 7 -4 8 -3 4 4 -10 16 7 15 23 0 10 -11 11 -9 5 7 -7 18 -6 19 10 6
9 -8 16 -10 15 -5 -4 20 2 26 15 15 11 -9 16 -9 22 0 4 7 3 9 -3 6 -6 -4 -13
0 -17 8 -3 8 -12 12 -21 9 -8 -3 -12 -10 -9 -15 7 -13 -19 -7 -28 6 -4 6 -5
19 -2 30 5 20 5 20 -10 1 -10 -12 -12 -24 -7 -30 6 -7 3 -16 -6 -25 -13 -12
-14 -11 -8 9 6 17 4 21 -6 14 -12 -6 -12 -5 -1 8 9 12 10 18 2 23 -6 4 -14 4
-17 1 -4 -3 -1 -6 6 -6 7 0 9 -5 6 -10 -9 -15 -38 -13 -29 3 4 6 -2 4 -13 -5
-26 -24 -36 -23 -21 1 6 11 27 22 46 26 39 7 123 45 134 60 4 6 8 2 8 -7 0
-10 -4 -18 -10 -18 -17 0 -33 -41 -21 -53 14 -14 51 -20 51 -8 0 6 9 8 20 6
11 -2 19 1 17 8 -1 6 3 11 10 12 6 0 22 13 34 29 20 25 21 29 5 23 -10 -4 -20
-7 -22 -7 -3 0 -3 -4 0 -8 2 -4 0 -14 -6 -22 -8 -13 -9 -12 -5 1 3 9 1 21 -5
27 -12 12 -2 32 15 31 9 0 9 -2 0 -6 -7 -2 -13 -9 -13 -14 0 -5 11 -3 25 3 14
6 25 15 25 20 0 5 -5 6 -10 3 -6 -3 -10 -1 -10 5 0 7 6 10 13 7 7 -2 11 -18
10 -36 -1 -17 2 -29 8 -26 5 4 9 15 9 26 0 11 5 17 10 14 6 -4 7 -12 3 -18 -4
-7 0 -6 10 2 18 15 23 26 7 16 -6 -3 -10 -2 -10 2 0 5 -13 17 -29 26 -28 17
-30 17 -40 0 -9 -16 -10 -16 -11 -1 0 25 21 28 56 7 29 -17 32 -18 38 -3 5 12
2 15 -9 10 -9 -3 -18 1 -21 9 -4 8 -11 12 -18 8 -6 -3 -8 -2 -3 2 14 16 47 15
53 0 4 -8 11 -12 18 -8 6 4 5 -1 -3 -11 -11 -13 -12 -19 -2 -29 10 -9 11 -8 5
7 -6 15 -4 17 7 11 8 -4 11 -5 7 0 -4 4 -3 16 3 27 10 19 11 19 32 2 12 -10
17 -12 10 -5 -9 11 -8 17 3 29 10 10 12 18 5 25 -12 12 -2 39 12 30 6 -4 8 0
4 11 -4 10 -3 15 3 11 6 -3 10 -2 10 4 0 24 -20 18 -39 -12 -11 -17 -21 -27
-21 -21 0 6 10 23 21 38 15 20 25 24 32 17 6 -6 17 -11 25 -11 7 0 1 10 -14
23 -22 19 -24 25 -13 32 8 5 11 5 7 0 -4 -4 0 -14 8 -23 11 -11 18 -12 27 -3
8 8 8 11 -2 11 -7 0 -9 5 -6 10 3 6 1 10 -4 10 -6 0 -11 5 -11 10 0 18 18 11
25 -9 4 -13 12 -18 23 -14 14 5 13 3 -2 -9 -21 -16 -32 -58 -16 -58 6 0 9 3 9
8 -4 21 2 42 10 38 5 -4 11 0 14 6 6 21 -4 48 -19 48 -8 0 -14 5 -14 11 0 5 5
7 10 4 14 -9 40 13 40 34 -1 14 -2 14 -14 -1 -7 -10 -19 -18 -26 -18 -7 0 -2
9 11 21 21 18 22 20 4 14 -17 -5 -18 -4 -7 7 14 13 22 7 60 -48 7 -11 10 -13
7 -6 -11 22 -16 64 -7 58 4 -2 14 -1 21 3 10 7 10 13 2 29 -7 14 -8 23 -1 27
6 4 8 11 5 16 -4 5 -2 9 4 9 5 0 9 -9 8 -19 0 -11 -6 -17 -12 -13 -5 3 -4 -2
4 -11 14 -18 26 -23 16 -8 -3 5 -1 12 4 16 6 3 7 13 4 22 -5 12 -3 14 7 8 9
-5 11 -4 6 4 -4 6 -11 9 -16 6 -5 -3 -11 -1 -15 5 -4 6 -11 8 -16 5 -5 -4 -9
-2 -9 4 0 6 12 8 32 4 22 -4 29 -3 24 6 -4 6 -11 9 -16 6 -16 -10 -18 10 -4
30 8 11 14 14 14 6 0 -10 3 -11 13 -2 10 8 17 7 27 -2 9 -8 11 -8 6 0 -4 7 3
14 16 19 30 9 119 103 112 117 -3 7 2 3 10 -7 9 -11 19 -17 22 -13 4 4 1 14
-7 24 -9 11 -10 14 -1 9 6 -4 12 -2 12 3 0 6 5 11 11 11 8 0 8 -5 -1 -15 -10
-12 -10 -15 0 -15 10 0 10 -3 0 -15 -7 -9 -21 -13 -31 -10 -13 4 -19 1 -19 -9
0 -9 -6 -16 -12 -16 -9 0 -8 -3 2 -10 12 -7 11 -13 -10 -34 -13 -15 -19 -26
-13 -26 20 0 54 47 47 66 -6 18 -6 18 9 -1 11 -15 12 -22 4 -27 -7 -4 -7 -8
-2 -8 6 0 16 4 23 9 11 7 10 9 -3 15 -17 6 -12 26 6 26 6 0 7 -4 4 -10 -3 -6
1 -7 10 -3 11 4 13 8 6 13 -6 3 -9 17 -7 31 3 13 5 27 5 31 1 4 9 5 19 3 9 -3
4 1 -13 9 -22 11 -34 11 -45 3 -12 -9 -13 -8 -3 2 6 7 9 21 6 30 -5 15 -4 15
8 0 8 -10 25 -20 39 -23 l25 -7 -24 14 c-14 8 -26 22 -27 32 -1 9 0 14 3 11 3
-3 14 -1 24 4 13 8 20 6 28 -7 7 -12 10 -14 11 -4 0 11 3 11 15 1 10 -9 15 -9
15 -1 0 10 -14 15 -33 12 -5 -1 -6 3 -3 8 9 14 -16 20 -37 9 -10 -5 -21 -7
-24 -5 -2 3 5 8 16 12 17 5 19 10 11 25 -7 13 -7 21 2 26 6 4 9 3 5 -2 -13
-22 52 -71 70 -53 8 8 13 7 18 -2 5 -8 4 -10 -3 -5 -7 4 -12 2 -12 -4 0 -7 6
-10 13 -7 6 2 11 10 10 16 -3 10 1 13 29 15 7 1 12 -14 13 -34 4 -80 46 -172
91 -196 24 -13 30 -21 21 -27 -7 -5 -1 -6 16 -3 15 4 27 2 27 -3 0 -23 112 24
163 68 19 17 40 31 46 31 7 0 10 3 7 8 -2 4 2 16 10 27 8 10 14 13 14 7 0 -7
4 -12 9 -12 6 0 8 9 6 20 -2 11 0 20 6 20 5 0 9 7 9 15 0 9 7 18 15 21 8 4 12
10 9 15 -3 6 0 17 7 25 7 9 14 23 15 31 3 19 14 30 14 14 0 -7 5 -9 10 -6 8 5
7 11 -1 21 -8 10 -9 18 0 27 6 8 8 17 4 20 -3 4 -1 7 5 7 7 0 11 3 11 8 -1 4
-1 16 0 27 1 15 4 16 13 7 23 -23 32 -12 10 11 -12 13 -19 27 -15 31 5 4 8 24
8 44 0 33 3 37 25 35 22 -2 23 -2 5 6 -11 4 -20 12 -21 17 0 5 -6 36 -13 68
-16 72 -48 110 -83 97 -24 -9 -26 -23 -16 -111 12 -102 -78 -325 -174 -431
-46 -51 -69 -61 -86 -41 -10 13 -12 13 -7 2 4 -8 -1 -6 -9 5 -9 11 -14 25 -12
32 3 6 2 14 -2 16 -4 2 -2 2 5 1 6 -2 14 4 17 12 3 8 2 13 -2 10 -4 -3 -14 4
-20 15 -12 19 -11 19 9 9 17 -10 20 -9 14 1 -6 9 -3 11 11 6 18 -7 18 -7 0 8
-20 15 -20 15 0 30 14 11 15 14 3 9 -10 -3 -20 0 -24 6 -6 9 -10 9 -16 -1 -5
-9 -9 -9 -9 -3 0 7 12 20 28 30 24 16 25 16 13 1 -8 -10 -11 -20 -7 -24 3 -3
6 -1 6 6 0 7 5 9 12 5 7 -4 8 -3 4 4 -4 7 -1 12 6 12 8 0 9 3 3 8 -15 11 -17
32 -4 48 8 10 8 14 0 14 -6 0 -11 -6 -11 -12 -1 -13 -29 30 -30 45 0 4 7 7 16
7 11 0 14 -6 9 -21 -6 -17 -4 -20 6 -13 8 5 17 9 21 9 3 0 10 4 15 9 5 5 3 6
-4 2 -12 -7 -17 4 -14 31 1 6 -3 14 -9 18 -5 3 -10 -1 -10 -9 0 -9 -4 -16 -8
-16 -5 0 -9 7 -9 15 0 8 4 15 9 15 5 0 7 4 3 9 -3 5 -1 12 4 15 5 4 12 2 16
-4 3 -5 12 -10 18 -10 7 1 3 8 -9 18 -17 14 -19 22 -11 45 11 33 18 34 44 3
17 -20 19 -26 7 -30 -8 -3 -22 -2 -31 1 -16 6 -16 5 -4 -10 8 -10 16 -15 19
-12 3 3 11 0 18 -5 9 -8 12 -6 10 7 0 11 5 17 14 15 10 -3 9 3 -5 19 -19 21
-19 22 -1 15 16 -5 17 -4 6 9 -7 8 -16 13 -20 10 -4 -2 -15 2 -25 9 -16 12
-17 15 -3 34 8 12 17 19 20 16 3 -3 5 1 5 10 -1 8 3 14 8 13 6 -1 9 -10 9 -19
-1 -10 2 -15 7 -13 13 9 22 -16 10 -28 -9 -9 -11 -8 -6 3 4 11 -1 16 -15 17
-14 1 -20 -4 -20 -20 0 -18 2 -19 10 -7 5 8 10 10 10 4 0 -7 7 -14 15 -18 8
-3 14 -2 14 2 -3 21 3 24 17 6 15 -18 15 -18 5 3 -14 27 -14 36 -1 28 6 -4 9
-1 8 7 -2 7 3 12 10 10 8 -1 11 2 7 8 -3 5 1 13 9 16 9 3 13 10 10 15 -5 8 9
13 28 10 4 0 4 7 1 16 -4 11 -2 14 5 9 6 -4 18 4 27 18 9 14 22 23 30 20 7 -3
16 -1 20 5 4 7 0 8 -10 4 -15 -5 -15 -3 -4 14 7 12 20 20 28 18 9 -1 26 7 39
19 13 11 25 20 28 19 10 -7 24 -2 24 8 0 6 -5 7 -12 2 -20 -12 -38 -12 -38 -1
0 6 6 8 14 5 8 -3 21 4 30 18 14 21 14 24 -1 29 -9 4 -18 4 -21 1 -3 -3 0 -5
6 -5 23 0 1 -25 -23 -26 -23 -2 -24 0 -13 15 12 14 11 15 -4 2 -10 -7 -15 -17
-12 -22 3 -5 0 -9 -5 -9 -6 0 -11 5 -11 10 0 6 -5 10 -11 10 -8 0 -8 -4 0 -14
19 -23 -5 -53 -39 -48 -18 3 -29 -1 -33 -12 -5 -12 -2 -14 18 -6 14 5 27 6 30
0 8 -13 -6 -18 -47 -15 -21 2 -38 -1 -38 -6 0 -20 -2 -24 -16 -32 -8 -4 -20
-5 -27 -1 -7 5 -7 1 2 -10 11 -13 16 -14 23 -4 5 8 7 4 4 -12 -3 -14 -5 -28
-5 -32 -1 -5 -5 -8 -10 -8 -6 0 -8 8 -6 18 2 10 -6 24 -17 31 -16 10 -19 10
-12 -1 5 -7 9 -17 10 -23 1 -5 6 -19 10 -29 5 -14 4 -17 -4 -12 -7 4 -12 14
-12 22 0 8 -5 14 -11 14 -6 0 -9 -7 -6 -15 4 -8 1 -17 -6 -21 -7 -4 -9 -4 -5
1 4 4 2 15 -5 23 -9 12 -9 16 1 19 6 3 10 8 7 12 -7 12 113 133 125 126 6 -4
9 -1 8 6 -4 16 99 69 133 69 15 0 32 -7 39 -15 7 -8 9 -15 4 -15 -4 0 1 -7 12
-15 10 -8 15 -15 9 -15 -5 0 -3 -5 5 -10 12 -7 15 -30 15 -102 -1 -94 -2 -107
-25 -211 -14 -59 -40 -80 -40 -31 0 17 4 23 13 18 9 -5 9 -3 -1 7 -11 12 -14
12 -22 -1 -14 -21 -12 -28 10 -50 11 -11 16 -20 11 -20 -6 0 -8 -9 -6 -20 2
-11 -1 -22 -6 -25 -5 -4 -6 -11 -3 -17 5 -7 2 -8 -5 -4 -8 6 -11 2 -9 -10 2
-13 -3 -19 -16 -19 -11 0 -21 -5 -23 -12 -3 -8 4 -11 18 -8 16 3 20 2 12 -6
-6 -6 -9 -19 -6 -28 4 -14 3 -14 -6 -1 -10 14 -12 13 -15 -20 0 -8 -9 -14 -19
-13 -11 0 -16 -4 -13 -12 2 -7 -1 -18 -7 -24 -8 -8 -8 -11 1 -11 7 0 15 7 18
15 4 8 11 15 16 15 7 0 6 -5 -1 -13 -6 -8 -7 -17 -3 -21 4 -4 2 -7 -3 -6 -21
5 -36 0 -30 -10 4 -6 12 -7 18 -4 8 4 7 2 -1 -7 -11 -12 -14 -12 -22 1 -5 8
-12 12 -15 8 -4 -3 1 -17 9 -30 15 -24 13 -38 -6 -38 -5 0 -6 10 -3 23 7 20 6
21 -9 6 -20 -19 -11 -50 12 -42 13 4 14 3 4 -5 -8 -5 -13 -13 -13 -18 2 -20
-21 -74 -30 -69 -5 4 -6 -1 -3 -9 3 -9 -43 -113 -109 -244 -117 -232 -128
-266 -96 -298 8 -7 25 -15 39 -17 21 -3 25 -9 24 -36 -1 -34 7 -39 26 -16 11
13 10 14 -6 8 -16 -6 -17 -4 -7 8 9 11 9 19 2 26 -7 7 -5 14 4 21 15 13 14 14
18 -45 1 -18 7 -34 14 -37 8 -3 11 5 9 24 -3 23 3 34 28 51 17 13 28 18 24 11
-4 -7 -4 -12 1 -13 4 0 16 -2 25 -4 10 -2 20 1 23 5 3 5 -4 7 -15 5 -13 -2
-20 1 -20 11 0 8 4 13 8 10 5 -3 8 8 7 24 -1 17 3 30 8 30 5 0 7 -8 5 -18 -3
-12 1 -18 12 -18 11 0 16 6 12 15 -4 10 -1 12 8 6 9 -5 11 -4 6 4 -4 6 -12 9
-17 6 -5 -4 -9 -1 -9 6 0 6 8 9 18 7 11 -3 19 0 19 7 0 7 -7 12 -16 10 -9 -3
-27 -7 -41 -11 -18 -4 -15 -1 10 13 19 10 34 24 32 31 -1 7 3 12 9 12 6 0 9
-6 6 -14 -4 -9 2 -13 17 -12 19 1 22 5 16 21 -5 12 -15 19 -26 17 -12 -3 -8 5
13 22 30 25 54 29 80 13 6 -4 15 -2 19 4 4 7 3 9 -4 5 -6 -3 -13 -2 -17 3 -6
11 30 53 38 44 5 -4 33 39 29 45 -8 11 1 13 9 2 9 -13 10 -13 6 0 -2 8 -8 15
-13 15 -25 2 -52 17 -50 29 3 22 55 78 66 71 5 -3 10 -1 10 4 0 6 -6 11 -12
11 -7 1 -3 9 10 19 12 11 22 22 22 26 0 7 39 59 109 145 l21 25 -11 -32 c-7
-21 -15 -30 -22 -26 -7 4 -6 -1 2 -10 12 -15 11 -17 -3 -17 -9 0 -16 -5 -16
-11 0 -5 5 -7 10 -4 6 3 10 2 10 -3 0 -17 -13 -22 -28 -9 -13 10 -14 9 -4 -9
6 -12 8 -24 5 -28 -3 -3 -2 -6 4 -6 5 0 10 -7 10 -15 0 -8 -4 -12 -9 -9 -4 3
-8 0 -8 -5 0 -6 4 -11 9 -11 6 0 8 -8 6 -17 -29 -141 -41 -191 -64 -263 -22
-66 -26 -91 -19 -112 17 -47 81 -49 121 -4 18 21 18 20 0 -9 -17 -27 -17 -29
0 -22 9 3 17 2 17 -3 0 -6 -7 -10 -16 -10 -8 0 -13 -4 -9 -9 3 -5 1 -12 -4
-16 -6 -3 -8 3 -6 13 2 11 -3 19 -11 19 -9 0 -11 -4 -5 -10 5 -5 7 -16 4 -23
-9 -23 22 -16 47 11 19 20 21 27 10 40 -8 10 -9 15 -1 15 6 0 11 -5 11 -11 0
-5 5 -7 11 -4 7 5 2 16 -12 31 -12 13 -17 24 -11 24 7 0 12 -4 12 -9 0 -16 58
-52 65 -41 4 6 3 9 -2 8 -5 -2 -20 7 -33 20 -21 20 -22 22 -5 16 18 -7 19 -6
5 11 -9 11 -10 16 -2 11 6 -4 12 -3 12 2 0 5 15 24 33 42 19 20 25 30 15 27
-10 -4 -18 -3 -18 2 0 5 11 11 25 13 13 3 22 1 19 -3 -3 -5 -7 -19 -9 -30 -5
-25 -15 -38 -15 -20 0 7 -9 3 -22 -9 -12 -11 -19 -23 -15 -26 4 -4 2 -13 -4
-20 -13 -16 2 -26 21 -13 11 6 12 9 2 9 -7 0 -11 4 -7 10 3 5 13 7 23 4 14 -5
14 -4 2 4 -8 6 -19 8 -25 5 -5 -4 -6 -2 -2 3 5 5 12 9 15 10 19 2 41 17 37 24
-3 5 -1 11 4 15 6 3 8 12 4 20 -7 20 7 19 24 -3 13 -15 13 -15 3 6 -8 16 -8
22 1 22 7 0 2 9 -11 20 -25 22 -20 26 12 9 15 -8 19 -8 14 0 -4 6 0 14 8 17
15 6 32 41 28 57 -1 4 4 7 12 7 7 0 20 7 27 17 13 15 11 15 -19 -1 -19 -10
-30 -21 -26 -28 5 -7 3 -8 -5 -3 -9 5 -10 10 -2 18 15 15 14 32 -1 19 -8 -5
-22 -6 -33 -1 -11 4 -14 8 -7 8 6 1 12 8 12 17 0 11 7 14 28 11 21 -3 32 1 40
14 8 13 9 19 1 19 -5 0 -7 5 -3 11 5 8 9 8 14 -1 4 -6 10 -11 14 -11 3 1 5 -2
4 -6 -2 -5 -7 -7 -11 -5 -5 1 -5 -3 -1 -9 5 -8 3 -9 -6 -4 -9 5 -11 4 -6 -3 6
-11 -6 -16 -26 -13 -11 1 -10 -17 1 -23 5 -3 14 1 21 9 7 8 17 12 23 8 6 -3 7
-1 3 5 -4 7 -3 12 2 12 16 0 23 31 11 46 -6 8 -15 11 -20 9 -4 -3 -6 4 -4 15
2 12 0 18 -6 14 -6 -3 -8 -9 -5 -12 4 -3 -3 -15 -13 -26 -11 -12 -20 -24 -20
-28 -1 -5 -3 -8 -6 -8 -3 0 -10 0 -16 0 -6 0 -5 6 3 15 26 28 34 40 41 58 3 9
13 17 21 17 9 0 13 6 10 13 -3 8 2 20 11 27 8 7 15 18 15 25 0 21 35 46 47 34
8 -8 14 -5 22 10 8 14 8 21 1 21 -5 0 -10 -8 -10 -17 0 -13 -3 -14 -11 -6 -9
9 -2 25 26 65 21 29 45 59 54 66 8 6 11 12 7 12 -4 0 9 19 28 42 20 23 36 47
36 54 0 7 8 19 19 26 10 7 18 16 17 20 0 3 8 17 19 30 11 13 22 28 23 33 1 6
6 10 11 10 5 0 13 3 17 8 4 4 2 7 -5 7 -7 0 -9 5 -5 11 5 8 10 7 16 -5 7 -12
1 -23 -24 -46 -40 -36 -23 -41 18 -5 16 14 37 24 46 21 10 -2 21 1 25 6 3 6 2
8 -4 5 -12 -8 -53 20 -53 36 0 7 5 4 11 -5 12 -22 41 -24 33 -3 -5 13 6 20 28
16 4 0 4 7 1 16 -4 10 -2 14 5 9 6 -3 13 -2 17 3 3 6 -3 8 -14 6 -11 -2 -22 3
-25 11 -3 9 -11 12 -17 8 -8 -4 -7 -9 2 -16 11 -8 10 -9 -3 -4 -10 3 -22 -2
-27 -12 -6 -9 -11 -12 -11 -5 0 6 5 15 10 18 6 4 7 11 4 17 -4 6 -2 8 4 4 5
-3 12 0 15 6 3 10 7 10 18 1 21 -17 58 -13 51 6 -3 9 -1 12 5 8 7 -4 10 0 8
10 -2 10 -4 24 -4 32 -1 8 -4 11 -8 8 -9 -10 -33 13 -32 32 0 10 4 8 10 -8 8
-19 12 -21 24 -11 8 7 21 10 29 7 10 -4 13 -1 9 9 -6 17 -8 17 -36 3 -21 -10
-21 -10 -3 5 11 9 23 16 28 16 4 0 8 7 8 15 0 8 -3 15 -6 15 -3 0 -12 -7 -20
-15 -9 -8 -21 -15 -27 -15 -8 0 -7 3 2 9 7 5 11 13 8 18 -7 11 33 11 50 0 6
-4 15 -2 19 4 4 8 3 9 -4 5 -15 -9 -15 -1 -2 24 13 24 -5 37 -25 20 -11 -9
-15 -9 -15 -1 0 6 4 11 10 11 5 0 6 8 3 18 -6 15 -5 15 12 -2 18 -18 19 -18
26 0 7 18 8 18 9 -1 2 -11 2 -24 1 -28 -1 -5 3 -6 8 -2 6 3 8 12 5 19 -7 18
54 30 72 15 10 -8 14 -9 14 0 0 6 5 11 12 11 6 0 4 -7 -5 -18 -10 -10 -17 -23
-17 -28 1 -5 14 6 30 25 16 19 26 41 23 50 -4 14 -3 14 6 -1 8 -12 21 -16 41
-13 17 2 28 0 25 -5 -3 -5 -13 -6 -23 -3 -9 3 -14 3 -11 -1 9 -10 50 -16 44
-6 -3 5 -1 11 5 15 13 8 13 25 -1 25 -5 0 -7 -4 -4 -10 4 -6 -1 -7 -11 -3 -15
6 -15 7 1 16 11 6 21 5 28 -2 6 -6 18 -11 26 -11 10 0 4 8 -14 20 -33 22 -28
27 8 8 12 -7 23 -14 25 -14 6 -3 -22 -54 -30 -54 -4 0 -8 -5 -8 -11 0 -6 -35
-73 -77 -148 -65 -118 -81 -140 -109 -150 -37 -13 -48 -37 -46 -96 2 -33 -14
-71 -88 -210 -138 -261 -218 -425 -231 -476 -22 -83 26 -146 92 -122 16 6 29
7 29 2 0 -5 -8 -9 -17 -9 -13 0 -14 -3 -5 -12 16 -16 64 29 57 53 -3 9 1 24 9
32 11 11 12 17 3 26 -8 8 -8 11 0 11 18 0 23 -28 8 -43 -15 -16 -15 -48 0 -60
6 -5 3 -7 -7 -3 -10 3 -20 0 -24 -5 -4 -7 3 -9 17 -7 18 2 23 8 21 25 -2 13 4
33 12 45 9 12 16 18 16 12 0 -5 -6 -16 -12 -23 -11 -11 -10 -12 0 -6 10 5 28
-8 56 -39 24 -25 50 -46 58 -46 9 0 21 -7 28 -15 7 -8 17 -12 23 -8 6 3 7 1 3
-5 -4 -7 -2 -12 3 -12 6 0 11 5 11 12 0 6 2 9 5 6 3 -3 3 -13 -1 -22 -5 -14
-10 -13 -36 9 -16 14 -35 25 -41 25 -7 -1 1 -8 16 -16 17 -9 26 -21 23 -29 -3
-8 0 -17 6 -21 7 -4 8 -3 4 4 -9 16 7 15 22 0 7 -7 12 -9 12 -5 0 4 8 3 18 -2
10 -5 24 -6 32 -1 8 5 22 3 36 -6 24 -16 38 -7 23 16 -7 13 -10 13 -18 1 -5
-8 -11 -9 -15 -3 -7 12 19 23 38 16 8 -3 21 5 30 17 19 28 10 42 -10 15 -7
-11 -16 -18 -18 -15 -10 10 24 41 39 35 13 -5 14 -10 4 -27 -10 -19 -9 -21 6
-15 20 7 48 -11 38 -27 -3 -6 -1 -7 5 -3 8 5 9 13 2 26 -7 13 -6 21 5 30 9 7
14 20 13 29 -2 8 2 16 9 16 6 0 15 3 19 8 4 4 11 7 15 7 4 0 -6 -14 -22 -31
-16 -17 -26 -36 -22 -42 4 -6 1 -7 -7 -2 -8 5 -11 4 -7 -3 8 -12 32 -10 44 3
4 4 2 5 -4 1 -7 -4 -13 -2 -13 3 0 6 9 11 21 11 11 0 17 -5 14 -10 -3 -5 -1
-10 4 -10 6 0 11 7 11 16 0 8 5 12 10 9 9 -6 14 8 11 28 -1 9 13 9 22 0 4 -3
1 -13 -5 -22 -8 -10 -4 -9 10 3 22 19 30 32 13 21 -5 -3 -12 -1 -16 5 -3 5 -1
10 6 10 7 0 9 3 6 7 -4 3 -2 12 4 20 9 10 8 13 -5 13 -19 0 -21 16 -4 26 7 5
8 3 3 -6 -6 -10 -4 -12 9 -7 9 4 15 3 12 -2 -12 -19 32 -42 75 -40 39 3 51 10
111 69 37 36 70 61 72 55 2 -5 5 -2 5 8 1 10 14 32 31 50 26 28 29 29 27 10 0
-12 -5 -19 -9 -17 -4 3 -8 -2 -8 -11 0 -10 5 -13 13 -9 8 5 8 3 -2 -9 -11 -14
-11 -18 2 -23 13 -5 14 -9 4 -24 -7 -12 -14 -15 -18 -9 -4 7 -9 8 -13 1 -3 -5
1 -13 9 -16 9 -3 18 1 21 9 9 22 18 18 31 -12 17 -37 58 -84 67 -76 3 3 6 1 6
-6 0 -7 6 -11 14 -8 11 4 13 -1 10 -19 -4 -22 -2 -23 10 -12 7 7 12 16 9 21
-2 4 1 7 6 7 6 0 11 -4 11 -10 0 -5 8 -7 18 -4 14 5 14 4 2 -4 -8 -6 -17 -9
-21 -6 -4 2 -10 0 -14 -6 -3 -5 -2 -10 3 -10 5 0 12 -10 16 -22 5 -19 8 -21
16 -8 13 20 12 39 -1 20 -9 -13 -10 -13 -6 0 2 8 10 14 16 13 10 -3 15 10 12
30 0 4 4 7 10 7 6 0 8 -9 3 -22 -6 -19 -5 -21 7 -11 12 10 18 8 29 -10 11 -19
11 -20 -1 -11 -17 14 -49 14 -49 1 0 -5 8 -6 18 -3 14 5 14 4 -2 -9 -11 -8
-15 -15 -9 -15 7 0 15 5 18 10 3 6 11 10 16 10 6 0 7 -6 3 -12 -5 -9 -2 -9 9
1 9 7 17 10 17 6 0 -4 6 -3 13 4 9 7 17 7 24 0 7 -7 9 4 8 35 -2 29 1 46 8 47
31 2 52 9 55 18 2 6 10 11 17 11 8 0 19 8 24 18 6 9 11 14 11 10 0 -3 18 11
40 33 23 23 45 37 52 33 7 -5 8 -3 4 5 -5 7 -1 20 7 29 9 9 36 38 60 65 25 26
42 47 40 47 -3 0 11 20 31 44 20 24 36 48 36 52 0 4 15 25 33 48 19 23 55 74
81 114 26 39 52 72 58 72 6 0 7 7 4 16 -3 8 -2 13 3 10 8 -6 26 22 23 36 -1 3
6 12 16 20 15 11 15 11 5 -2 -6 -8 -12 -18 -12 -22 -3 -22 -35 -76 -43 -72 -4
3 -8 -2 -8 -10 0 -9 -4 -16 -10 -16 -5 0 -10 -5 -10 -11 0 -5 6 -7 13 -4 6 4
-4 -7 -23 -24 -19 -17 -30 -31 -25 -31 6 0 17 6 25 13 12 10 12 9 1 -5 -7 -10
-20 -18 -28 -18 -12 0 -13 -3 -5 -13 8 -9 8 -17 0 -27 -8 -12 -9 -11 -4 3 4
12 2 17 -6 15 -16 -6 -17 -30 -3 -41 6 -5 3 -7 -7 -3 -10 3 -18 1 -18 -4 0 -6
5 -10 12 -10 6 0 8 -3 4 -7 -4 -5 -15 1 -23 12 -15 20 -15 20 -10 -2 4 -18 1
-23 -16 -24 -22 0 -22 0 1 -11 12 -6 22 -15 22 -20 0 -5 5 -6 12 -2 7 5 8 3 4
-5 -6 -9 -13 -8 -27 5 -11 9 -22 15 -25 12 -3 -3 8 -16 23 -28 15 -13 20 -20
11 -17 -10 4 -18 2 -18 -3 0 -6 5 -10 10 -10 6 0 10 -4 10 -10 0 -5 -6 -10
-14 -10 -9 0 -13 9 -12 25 2 14 -3 30 -10 36 -11 9 -13 6 -10 -18 1 -17 6 -35
9 -41 4 -5 1 -12 -7 -15 -9 -4 -12 0 -9 12 3 11 -2 21 -13 25 -15 6 -15 4 -3
-11 8 -9 9 -14 2 -10 -6 4 -14 3 -18 -3 -3 -5 -1 -10 4 -10 6 0 11 -6 11 -13
0 -7 9 -13 20 -14 11 -1 19 3 17 9 -1 6 4 13 10 15 9 3 11 -8 7 -44 -15 -126
6 -196 66 -224 19 -9 41 -14 50 -11 11 4 11 1 -3 -12 -12 -13 -15 -22 -7 -30
5 -7 8 -15 5 -18 -3 -2 3 -5 12 -5 26 0 39 18 36 52 -1 21 0 26 7 15 5 -8 6
-18 3 -22 -2 -5 1 -16 9 -25 7 -9 8 -14 3 -11 -6 4 -17 -3 -25 -15 -12 -20
-12 -21 3 -9 9 8 22 10 28 6 8 -5 9 -3 4 6 -6 10 -4 12 8 7 10 -4 16 -2 14 5
-1 7 4 12 12 13 8 0 15 8 17 18 1 10 -2 14 -9 10 -7 -4 -8 0 -3 12 7 18 6 18
-14 0 -22 -20 -28 -44 -6 -26 11 9 16 9 22 -1 4 -7 4 -10 -1 -6 -4 4 -14 3
-22 -3 -15 -13 -15 -13 -18 18 -1 12 1 21 4 18 4 -2 13 6 20 18 11 18 11 20 0
10 -7 -7 -20 -13 -29 -13 -13 1 -13 2 0 13 21 16 25 92 8 120 -8 12 -17 30
-21 40 -6 15 -4 16 13 7 11 -6 20 -13 20 -16 0 -3 -5 -2 -11 2 -7 4 -10 1 -7
-7 3 -8 10 -13 16 -12 6 2 9 -5 6 -15 -3 -9 1 -7 8 6 8 12 18 19 23 15 4 -4 5
-2 1 5 -4 7 -13 9 -19 6 -7 -4 -8 -3 -4 1 4 5 -3 15 -15 22 l-23 14 25 -7 c23
-6 24 -6 10 11 -8 11 -10 16 -3 12 15 -10 23 14 11 36 -5 10 -7 21 -5 24 3 2
8 -6 12 -18 l7 -22 13 22 c10 20 13 21 18 7 5 -12 3 -15 -6 -10 -6 4 -9 4 -5
0 3 -4 -3 -17 -14 -28 -15 -15 -17 -22 -8 -28 9 -5 9 -9 1 -11 -6 -2 -1 -10
11 -18 21 -13 22 -13 10 1 -10 13 -10 17 0 21 10 4 10 6 1 6 -7 1 -13 5 -13
11 0 5 5 9 12 7 7 -1 12 5 13 13 0 8 6 16 13 16 23 3 24 4 13 18 -8 10 -8 16
2 25 8 6 18 7 23 3 4 -4 2 1 -5 11 -15 20 -2 23 19 5 8 -7 6 -3 -5 10 -12 15
-21 19 -26 11 -4 -8 -13 -5 -28 10 -11 11 -17 21 -12 21 6 0 12 -4 15 -9 3 -5
17 -9 31 -9 19 0 23 4 15 13 -8 10 -6 13 7 11 10 0 17 5 15 13 -2 8 3 11 12 8
10 -4 13 -1 10 8 -5 11 -11 10 -35 -3 -16 -10 -29 -20 -29 -24 0 -5 -5 -8 -10
-8 -6 0 -5 8 2 19 7 11 16 17 20 15 4 -3 8 4 8 14 0 11 7 25 15 32 8 7 15 9
15 4 0 -4 7 1 16 12 15 19 15 19 5 -1 -8 -18 -6 -21 12 -22 17 -2 19 0 7 7
-12 8 -12 12 -2 18 7 5 12 15 10 23 -2 8 2 13 9 12 7 -2 10 6 6 20 -2 12 -6
29 -7 39 -1 9 -7 23 -14 31 -14 16 -6 28 14 20 8 -3 14 0 14 6 0 6 -4 11 -10
11 -5 0 -10 5 -10 11 0 8 4 8 14 0 20 -17 17 -51 -4 -43 -12 5 -13 3 -3 -10 7
-8 10 -18 6 -22 -4 -4 0 -4 10 0 9 3 15 10 12 14 -3 5 -2 11 3 14 12 7 2 66
-10 63 -6 -1 -13 5 -15 13 -4 12 -3 12 5 1 6 -8 12 -9 16 -3 3 5 -1 15 -9 22
-8 7 -15 17 -15 23 0 6 8 0 17 -13 10 -14 17 -28 16 -31 -1 -3 4 -6 12 -6 8 0
12 4 9 8 -2 4 -1 9 3 12 5 2 3 3 -3 1 -6 -1 -17 9 -23 22 -7 15 -7 23 -1 19
11 -7 14 8 3 19 -4 3 -8 33 -9 65 -1 60 -49 185 -66 175 -4 -3 -8 0 -8 5 0 6
-6 10 -13 8 -8 -1 -11 12 -9 46 4 61 -17 97 -56 97 -39 0 -66 -22 -114 -93
-61 -89 -80 -134 -83 -200 -3 -53 -10 -68 -75 -170 -256 -398 -465 -607 -522
-523 -5 7 -8 6 -8 -3 0 -11 -3 -11 -15 -1 -8 7 -12 16 -9 21 3 5 2 15 -2 21
-15 25 -11 45 8 40 10 -2 18 -9 18 -16 0 -6 4 -5 9 3 10 16 -8 53 -21 45 -4
-3 -8 0 -8 5 0 16 16 13 30 -4 10 -12 16 -13 26 -4 8 6 14 17 14 25 0 20 19
27 37 12 10 -8 14 -8 10 -1 -4 6 -3 14 2 18 6 3 8 12 5 19 -3 8 0 17 6 21 6 3
9 3 8 -2 -3 -9 5 -13 25 -13 6 0 4 5 -5 11 -10 5 -18 18 -17 27 0 10 3 12 6 5
2 -7 12 -13 21 -12 11 0 12 2 5 6 -7 2 -13 9 -13 15 0 6 6 8 14 5 8 -3 17 1
20 10 4 9 13 13 22 9 8 -3 12 -2 9 3 -7 12 -45 10 -45 -2 0 -4 -3 -6 -8 -3
-10 6 -37 -15 -45 -36 -3 -10 -12 -18 -19 -17 -10 0 -10 2 0 6 6 2 12 11 12
18 0 8 9 19 20 25 12 6 17 17 14 28 -5 14 -4 15 5 2 10 -13 12 -13 21 0 7 11
4 17 -11 22 -21 8 -18 28 4 28 7 0 6 -4 -3 -10 -13 -8 -13 -10 3 -11 9 -1 23
-2 30 -3 21 -2 36 17 26 37 -6 11 -6 17 1 17 5 0 10 -7 10 -15 0 -8 7 -15 16
-15 8 0 12 -5 9 -11 -4 -6 -10 -8 -13 -5 -3 3 -14 -2 -25 -11 -10 -10 -22 -17
-25 -15 -4 2 -8 -2 -10 -8 -3 -9 1 -9 17 -1 15 8 21 9 21 1 0 -6 11 1 24 16
20 25 26 71 6 59 -4 -2 -5 7 -2 21 4 25 5 24 23 -13 10 -21 16 -27 13 -14 -5
17 -3 21 6 16 9 -5 11 -4 6 3 -4 7 -1 12 6 12 10 0 10 2 -1 9 -9 6 -10 10 -2
14 7 3 7 5 -1 3 -7 -2 -13 -8 -13 -14 0 -5 -3 -14 -7 -18 -4 -3 -6 3 -3 15 4
20 -3 24 -35 22 -9 0 -10 2 -3 5 7 3 10 11 7 19 -3 7 -1 16 5 20 7 3 8 0 5 -9
-3 -8 3 -19 15 -26 12 -6 21 -7 21 -1 0 5 -6 11 -12 14 -8 2 -9 8 -4 13 5 5
11 4 13 -4 7 -20 40 -34 40 -17 0 8 -4 12 -8 10 -9 -6 -17 16 -12 32 2 7 11 9
19 6 10 -4 12 0 8 13 -4 11 -12 25 -18 32 -7 10 -5 17 8 24 17 9 17 10 -1 24
-17 13 -17 14 2 7 18 -6 18 -5 6 10 -12 16 -12 17 5 10 17 -6 18 -5 4 13 -11
15 -11 16 0 7 8 -7 19 -13 25 -13 5 1 -1 10 -14 20 -13 11 -18 20 -11 20 9 0
10 3 1 13 -7 9 -7 17 -1 23 6 6 6 32 -1 73 -13 73 -46 118 -93 125 -37 7 -100
-22 -145 -65 -45 -43 -128 -172 -184 -284 -42 -85 -97 -232 -97 -260 0 -7 -12
-20 -26 -30 -14 -9 -63 -51 -107 -93 -45 -43 -75 -69 -68 -59 13 17 12 17 -20
12 -18 -3 -31 -3 -28 0 6 6 44 16 67 17 6 1 12 8 12 16 0 9 -6 12 -17 7 -14
-5 -15 -3 -6 6 6 6 21 12 32 13 12 0 21 5 20 10 0 5 5 13 13 18 10 8 10 9 -2
5 -8 -2 -14 -10 -12 -16 1 -7 -2 -10 -7 -6 -6 3 -8 13 -5 23 5 14 3 14 -10 -2
-9 -11 -16 -16 -16 -11 0 5 7 17 16 27 13 14 14 21 5 32 -9 11 -8 15 3 19 9 4
18 1 22 -5 4 -7 3 -8 -4 -4 -7 4 -12 3 -12 -3 0 -20 16 -19 29 2 8 12 10 19 6
15 -10 -9 -47 32 -42 46 2 5 10 11 18 14 11 3 11 2 -1 -7 -12 -8 -12 -13 -2
-23 6 -6 12 -8 12 -3 0 6 5 3 10 -5 8 -12 9 -11 7 7 -4 28 -27 54 -41 46 -8
-4 -7 -2 1 7 6 7 9 19 6 26 -3 8 1 14 8 14 10 0 11 3 3 8 -7 4 -14 27 -18 51
-8 59 -57 164 -90 192 -14 12 -26 30 -25 38 0 10 4 8 9 -6 5 -13 14 -23 20
-23 15 0 8 23 -14 43 -10 9 -15 17 -11 17 5 0 17 -7 27 -16 14 -14 20 -14 33
-4 19 16 20 3 0 -17 -8 -8 -12 -19 -9 -25 5 -7 2 -8 -6 -3 -9 5 -11 4 -6 -4 4
-6 12 -9 17 -5 6 3 8 9 5 12 -3 3 3 12 14 19 11 8 18 19 15 24 -4 5 -1 9 5 9
7 0 9 -8 4 -22 -3 -13 -3 -20 1 -16 5 4 15 2 23 -5 9 -7 13 -7 9 -1 -7 13 30
51 40 41 7 -8 33 11 33 25 0 5 -4 6 -10 3 -6 -3 -10 -1 -10 4 0 6 3 11 8 11 4
0 20 11 35 25 26 24 32 21 28 -12 -1 -7 3 -13 9 -13 6 0 8 4 5 10 -6 9 8 15
29 11 5 -1 4 4 -2 12 -12 14 -7 27 10 27 5 0 6 -5 2 -12 -4 -7 -3 -8 5 -4 6 4
9 12 6 17 -4 5 -3 9 2 9 4 0 21 17 38 38 16 20 21 31 12 23 -9 -7 -17 -10 -17
-5 0 4 -5 3 -12 -4 -17 -17 -31 -15 -25 3 4 8 2 17 -3 20 -5 3 -8 14 -7 25 1
10 5 17 9 14 4 -3 5 -11 2 -18 -3 -7 2 -18 10 -25 11 -10 20 -7 43 15 17 17
21 25 11 21 -23 -8 -23 2 0 20 9 8 11 11 3 7 -9 -4 -12 -2 -9 7 3 8 10 14 15
14 6 0 14 3 18 7 9 9 -39 3 -55 -7 -10 -6 -9 -9 1 -16 10 -6 8 -8 -7 -7 -11 1
-21 8 -21 15 0 6 4 10 9 7 4 -3 8 0 8 5 0 6 6 11 13 11 7 0 13 9 14 20 1 11
-2 18 -8 15 -5 -4 -9 -1 -9 5 0 7 6 10 13 7 6 -2 11 -11 11 -19 -1 -8 4 -15
11 -15 7 0 11 6 8 13 -2 6 1 15 6 19 20 12 1 25 -27 19 -15 -3 -22 -2 -17 3 6
4 10 18 9 31 -1 25 0 26 29 11 17 -8 16 -6 -4 10 -20 16 -25 28 -24 56 2 21
-2 35 -9 35 -6 0 -4 5 4 10 10 6 11 10 3 10 -7 0 -13 6 -13 13 0 6 -11 35 -24
62 -41 88 -101 132 -209 155 -46 9 -61 17 -69 36 -18 40 -54 42 -92 5 -25 -25
-48 -34 -107 -46 -136 -26 -262 -77 -364 -150 l-61 -43 2 27 c1 14 -1 31 -5
36 -3 6 -7 19 -8 29 -11 68 -88 127 -137 105 -35 -16 -44 -54 -20 -80 50 -55
9 -237 -106 -470 -55 -111 -195 -343 -226 -373 -8 -8 -14 -17 -14 -20 0 -4
-13 -25 -30 -48 -16 -22 -30 -38 -30 -33 0 4 -7 2 -15 -5 -8 -7 -15 -8 -15 -3
0 6 10 15 23 21 18 10 19 11 3 9 -10 -1 -21 5 -23 13 -3 11 -2 11 4 3 10 -14
38 0 38 19 1 7 7 12 15 10 11 -3 11 0 1 12 -17 20 -31 12 -26 -14 3 -17 1 -19
-16 -9 -20 10 -20 11 3 33 15 14 27 19 35 13 9 -6 9 -3 0 16 -8 18 -14 21 -23
13 -7 -6 -9 -15 -6 -20 3 -5 0 -6 -7 -2 -9 6 -8 13 5 28 18 19 19 19 32 1 13
-15 14 -15 9 -1 -3 9 -1 19 6 22 9 3 8 5 -1 5 -7 1 -10 5 -7 11 9 15 -4 12
-21 -5 -9 -8 -21 -15 -27 -15 -8 0 -7 3 2 9 7 5 11 14 7 20 -5 7 -1 8 11 4 15
-6 16 -4 6 8 -9 11 -8 18 3 33 7 10 11 23 8 28 -3 5 2 16 12 24 18 14 17 15
-11 10 -25 -5 -27 -4 -12 5 10 6 24 8 32 5 7 -2 18 1 22 7 13 16 14 57 2 57
-5 0 -9 -5 -9 -12 0 -6 -3 -8 -7 -5 -3 4 2 16 12 27 10 11 14 20 10 20 -4 0
-1 8 7 18 8 9 26 37 39 62 13 25 29 48 34 52 6 4 6 8 1 8 -5 0 -4 6 2 13 6 6
11 15 11 19 4 22 14 37 31 41 13 3 17 0 13 -9 -3 -8 -9 -12 -13 -9 -5 3 -12 0
-16 -6 -5 -8 -3 -9 6 -4 9 6 11 4 5 -6 -6 -11 -5 -11 5 -2 7 6 20 9 29 6 14
-4 14 -3 1 6 -13 9 -12 12 5 26 19 14 19 15 1 8 -13 -4 -17 -3 -12 5 5 9 0 9
-20 2 -21 -9 -25 -8 -17 2 15 20 8 104 -12 148 -14 31 -26 42 -53 50 -87 23
-159 -72 -231 -305 -29 -96 -35 -119 -48 -195 -6 -38 -56 -114 -66 -103 -4 3
-7 -4 -7 -16 0 -12 -4 -19 -10 -16 -6 4 -8 10 -5 14 2 5 -7 13 -22 20 -14 6
-23 15 -19 18 3 4 12 1 18 -5 7 -7 19 -12 28 -12 12 1 12 3 -4 15 -21 16 -13
37 10 28 11 -4 12 -8 4 -13 -8 -5 -6 -9 6 -14 10 -4 15 -4 11 0 -4 4 -2 13 4
21 9 10 8 17 -2 29 -17 20 -20 56 -4 50 7 -2 17 -1 24 4 10 5 9 9 -4 13 -11 5
-14 3 -9 -6 6 -9 5 -9 -7 0 -12 10 -18 10 -29 0 -7 -6 -5 0 4 15 9 14 13 28 9
30 -4 3 -1 3 7 1 31 -9 35 -8 32 11 -2 12 1 15 8 11 9 -6 9 -2 0 14 -11 21
-30 21 -30 0 0 -6 4 -8 8 -5 4 2 8 -4 8 -15 0 -24 -3 -24 -16 2 -15 27 4 52
34 44 12 -3 15 -2 8 1 -10 5 -10 9 -1 20 10 12 8 13 -7 8 -10 -4 -24 -11 -30
-15 -6 -5 -11 -3 -11 6 0 8 4 12 9 9 4 -3 8 0 8 6 0 6 4 8 10 5 6 -3 7 1 4 9
-3 9 -9 14 -13 11 -4 -2 -8 2 -8 9 0 7 6 13 13 13 7 0 11 -4 9 -8 -3 -3 3 -13
13 -20 9 -7 14 -9 10 -5 -4 5 -2 16 5 24 8 11 8 14 0 9 -6 -4 -15 -2 -19 4 -3
6 -1 15 6 19 8 5 7 9 -5 13 -9 4 -13 3 -10 -2 3 -5 1 -12 -4 -15 -5 -3 -11 3
-14 14 -3 11 -2 18 1 16 4 -2 16 0 27 5 19 7 19 8 -1 8 -12 1 -25 8 -28 17 -6
14 -4 15 9 4 13 -11 16 -11 13 1 -2 8 -10 20 -18 27 -13 12 -13 13 0 6 13 -7
13 -5 1 9 -11 14 -11 17 0 17 12 0 12 2 1 9 -8 4 -13 11 -13 15 0 3 -1 11 -4
18 -2 7 -9 30 -15 50 -28 93 -116 165 -213 175 -164 17 -360 -142 -478 -386
-24 -50 -46 -90 -49 -91 -3 0 -6 9 -7 19 -4 50 -60 90 -116 82 -10 -1 -26 3
-35 11 -9 7 -13 8 -9 1 10 -16 -56 -53 -74 -42 -12 8 -12 10 0 18 9 6 10 10 2
14 -7 3 -7 4 1 3 7 -2 12 -11 10 -20 -3 -15 0 -15 17 -4 12 7 21 16 21 21 0 4
-4 6 -9 3 -5 -3 -13 0 -19 7 -12 15 -12 48 0 41 5 -3 15 0 23 6 11 9 15 9 15
1 0 -6 8 -11 18 -11 13 0 14 2 4 9 -21 13 -22 65 -3 95 15 22 20 24 24 12 4
-9 1 -15 -5 -13 -6 1 -13 -4 -15 -11 -3 -8 1 -10 14 -5 17 7 17 6 0 -11 -9
-10 -15 -21 -12 -26 3 -5 0 -10 -7 -12 -9 -3 -9 -6 0 -12 7 -4 12 -3 12 3 0 6
8 8 18 5 15 -5 15 -4 -1 6 -14 9 -16 15 -6 26 6 7 16 11 22 7 6 -4 7 -1 2 8
-14 21 -13 49 1 49 8 0 11 -8 9 -20 -2 -11 0 -18 4 -15 5 2 7 18 6 35 -2 27 5
35 28 31 5 -1 6 3 2 9 -3 6 -10 8 -15 5 -10 -6 -19 16 -13 33 6 15 33 16 33 2
0 -6 6 -5 14 2 12 11 12 14 0 21 -8 5 -12 12 -9 17 3 5 1 11 -5 15 -9 6 -14
-7 -11 -27 0 -5 -4 -8 -10 -8 -6 0 -8 7 -5 16 3 8 2 12 -3 9 -5 -3 -13 0 -17
6 -5 8 -3 9 5 5 8 -5 11 -3 9 7 -2 9 19 50 46 91 41 62 52 74 64 64 9 -8 10
-14 3 -16 -6 -2 -11 -10 -11 -18 0 -8 -5 -14 -11 -14 -5 0 -7 5 -3 12 4 7 3 8
-5 4 -6 -4 -9 -11 -6 -16 3 -5 -3 -13 -12 -19 -10 -5 -15 -12 -12 -15 3 -3 20
8 37 24 18 16 32 26 32 23 0 -3 6 0 14 6 9 8 16 8 20 2 4 -5 1 -13 -5 -17 -8
-5 -9 -3 -4 6 5 9 4 11 -4 6 -6 -4 -8 -12 -5 -18 4 -7 2 -8 -5 -4 -14 9 -73
-32 -65 -46 4 -5 9 -6 13 -2 3 5 13 15 22 21 13 10 16 10 16 -2 0 -8 -3 -13
-5 -10 -3 3 -13 -2 -23 -11 -10 -9 -19 -11 -23 -6 -9 15 -48 2 -42 -14 3 -8
-1 -14 -11 -14 -9 0 -13 -3 -9 -7 12 -12 31 -11 44 3 10 11 10 14 1 14 -7 0
-10 3 -6 6 3 3 11 3 17 -1 8 -5 8 -11 -1 -21 -6 -8 -8 -14 -4 -14 4 0 2 -6 -4
-14 -10 -12 -9 -14 6 -12 12 2 17 10 15 24 -2 16 1 20 12 16 9 -3 16 -1 16 6
0 6 -5 8 -11 4 -7 -4 -10 -2 -8 5 3 7 7 11 10 9 13 -7 37 25 34 45 -4 21 -4
22 10 3 12 -16 17 -17 28 -7 6 7 7 11 2 9 -6 -2 -10 2 -10 7 0 6 2 9 5 8 10
-3 9 36 -1 42 -5 4 -7 11 -3 16 3 5 10 7 15 3 5 -3 7 -10 4 -15 -4 -5 -1 -9 5
-9 7 0 10 6 7 14 -3 8 -3 17 1 19 4 2 1 2 -6 0 -7 -1 -10 2 -7 8 4 5 15 7 24
4 20 -6 25 21 9 42 -15 19 -50 -3 -46 -29 2 -12 -3 -23 -11 -26 -9 -3 -11 0
-6 8 5 8 4 11 -3 7 -5 -4 -8 -17 -4 -30 5 -20 4 -21 -11 -8 -25 20 -20 32 25
69 38 31 42 32 59 16 20 -18 20 -55 1 -62 -17 -5 -15 -19 2 -19 8 0 14 5 13
10 -4 17 33 16 43 -1 5 -10 10 -12 10 -4 0 6 5 12 11 12 5 0 7 -6 3 -12 -6
-10 -4 -10 8 0 12 9 18 10 23 2 4 -6 13 -9 19 -7 7 3 19 1 27 -4 12 -7 12 -9
0 -9 -8 0 -11 -3 -8 -6 4 -4 13 -1 22 6 10 8 15 9 15 2 0 -6 10 -16 23 -22 20
-10 20 -10 5 3 -28 23 -21 29 13 11 17 -8 28 -11 25 -5 -4 6 -3 11 2 11 6 0
13 -7 16 -16 5 -13 9 -14 21 -4 12 10 15 9 16 -6 0 -11 3 -14 6 -6 2 6 9 9 15
6 21 -13 53 -9 67 9 7 10 10 21 6 25 -3 3 -9 2 -13 -3 -4 -6 -16 -17 -27 -25
-20 -15 -20 -15 0 9 11 12 29 28 40 33 11 6 17 7 13 3 -4 -5 -3 -14 3 -22 9
-10 8 -13 0 -13 -7 0 -9 -5 -5 -12 5 -7 3 -8 -6 -3 -9 6 -11 4 -5 -5 6 -10 14
-7 32 14 22 26 23 26 19 4 -2 -13 -9 -22 -15 -21 -6 2 -11 -2 -11 -7 0 -12 13
-13 24 -3 12 12 36 12 36 0 1 -7 7 -1 15 13 8 14 12 33 9 43 -3 9 -1 17 4 17
5 0 9 -6 9 -12 0 -7 4 -22 8 -33 5 -14 4 -16 -3 -7 -7 11 -11 10 -16 -4 -4 -9
-2 -22 4 -28 8 -8 10 -7 5 5 -4 10 0 16 10 16 8 0 15 -5 15 -10 0 -5 7 -4 15
3 12 10 18 10 29 1 10 -8 16 -9 21 -1 4 6 3 10 -2 9 -21 -4 -21 3 -3 21 20 20
19 40 -1 40 -6 0 -7 -5 -3 -12 4 -6 3 -8 -3 -5 -6 4 -17 -1 -24 -10 -12 -14
-11 -15 11 -9 l25 7 -25 -15 c-27 -17 -55 -22 -30 -6 13 8 13 10 0 10 -10 0
-7 5 8 16 21 14 33 42 13 29 -5 -3 -13 0 -17 7 -4 7 -4 10 0 7 10 -9 115 43
153 75 33 28 57 34 51 14 -3 -7 -10 -13 -15 -13 -6 0 -15 -4 -20 -9 -5 -5 -2
-6 6 -1 9 5 12 3 9 -6 -3 -8 -11 -13 -17 -11 -7 1 -10 -2 -6 -8 3 -5 8 -19 10
-30 3 -17 1 -19 -16 -10 -24 13 -25 22 -2 13 15 -6 16 -5 3 9 -8 9 -17 12 -18
7 -2 -5 -8 -6 -14 -3 -7 4 -7 0 0 -13 7 -12 7 -25 1 -34 -5 -7 -9 -10 -9 -6 0
5 -7 1 -16 -7 -8 -9 -21 -13 -27 -9 -7 4 -8 0 -4 -11 5 -11 3 -15 -5 -10 -7 4
-8 3 -4 -4 10 -17 26 -15 26 3 0 8 5 15 10 15 6 0 10 -5 10 -11 0 -5 5 -7 11
-3 8 4 7 9 -2 15 -14 9 2 13 41 10 10 0 11 1 3 5 -24 10 -13 21 17 18 17 -2
30 1 30 7 0 6 -4 7 -10 4 -5 -3 -10 -2 -10 3 0 6 7 12 15 16 8 3 15 0 15 -6 0
-7 6 -3 14 7 8 11 11 26 8 35 -5 13 -4 13 13 0 17 -13 18 -13 9 0 -5 8 -10 26
-10 40 -2 44 -4 50 -15 50 -6 0 -7 -5 -2 -12 4 -7 9 -22 10 -33 2 -16 1 -17
-6 -5 -5 8 -8 17 -5 21 2 4 -1 11 -7 15 -8 4 -9 -3 -4 -24 4 -19 2 -33 -6 -38
-9 -5 -10 -2 -6 11 4 9 3 23 -3 30 -8 9 -8 15 0 20 6 3 8 11 4 16 -3 5 -2 9 3
8 18 -3 33 2 33 11 0 5 -6 7 -13 5 -9 -4 -12 5 -11 29 3 49 -30 110 -75 139
-132 87 -371 69 -597 -46 l-51 -26 -92 34 c-132 49 -278 95 -325 102 -83 13
-246 4 -299 -16 -25 -10 -29 -8 -51 27 -78 121 -214 173 -355 136z m1601 -277
c5 -7 8 -8 8 -1 0 14 52 6 65 -11 10 -12 17 -15 33 -15 4 0 13 -9 20 -20 28
-46 -35 -84 -138 -83 -84 1 -180 19 -180 33 0 5 -8 7 -17 5 -25 -4 -36 5 -24
19 5 6 6 18 2 25 -6 9 -10 5 -15 -14 -5 -21 -10 -25 -19 -16 -6 6 -21 11 -33
11 -36 0 -37 17 -2 29 18 6 35 10 38 9 3 -1 15 4 28 11 13 7 42 15 65 17 23 3
43 7 45 8 10 10 117 4 124 -7z m-1159 -32 c-3 -9 -8 -14 -10 -11 -3 3 -2 9 2
15 9 16 15 13 8 -4z m57 -4 c10 -2 9 -41 -1 -41 -5 0 -8 3 -8 8 3 19 -2 29
-16 29 -8 0 -15 -6 -15 -13 0 -7 -5 -16 -12 -20 -6 -4 -9 -3 -6 2 3 5 8 17 11
26 3 9 14 15 24 13 10 -2 20 -4 23 -4z m-182 -28 c0 -16 3 -41 8 -58 12 -48 8
-202 -10 -301 -39 -224 -163 -495 -290 -632 -64 -69 -157 -102 -198 -69 -19
14 -64 92 -48 82 5 -3 10 -1 10 4 0 6 -5 11 -11 11 -8 0 -7 6 2 17 10 11 10
14 2 9 -12 -6 -15 0 -12 20 0 4 -5 11 -13 15 -10 7 -10 9 0 9 9 0 10 5 4 18
-14 28 0 194 17 200 5 2 7 10 5 17 -14 36 86 259 167 375 28 39 54 68 59 65 6
-3 7 0 4 8 -6 16 137 156 188 184 26 14 103 49 115 52 1 1 2 -11 1 -26z m267
7 c3 -5 2 -10 -4 -10 -5 0 -13 5 -16 10 -3 6 -2 10 4 10 5 0 13 -4 16 -10z
m-63 -32 c22 -4 26 -2 22 15 -3 18 -2 19 15 3 10 -9 22 -16 27 -15 21 4 35 -2
28 -12 -4 -8 -9 -7 -15 2 -5 8 -9 10 -9 6 0 -5 9 -20 20 -34 11 -14 20 -21 20
-15 0 6 -5 14 -10 17 -6 4 -8 11 -5 16 4 5 20 2 38 -8 18 -9 36 -16 41 -15 5
2 13 -3 17 -10 7 -10 11 -10 21 0 7 8 9 12 3 11 -5 -2 -19 2 -30 8 -11 6 -23
11 -27 12 -5 1 -8 3 -8 6 0 3 0 10 0 17 0 6 7 3 15 -8 12 -15 16 -16 24 -5 6
9 11 10 15 2 4 -6 2 -11 -4 -11 -6 0 -8 -5 -5 -10 4 -6 12 -7 18 -3 6 4 23 8
37 9 14 1 19 0 13 -3 -16 -6 -17 -33 -2 -33 5 0 7 -5 4 -10 -4 -6 -1 -9 7 -8
7 2 12 -3 10 -10 -1 -8 2 -11 10 -6 14 9 101 14 93 5 -4 -3 -11 -6 -16 -6 -5
0 -10 -4 -11 -10 -1 -5 -10 -19 -21 -30 -35 -37 -133 -159 -165 -207 -42 -61
-132 -217 -132 -228 0 -5 -3 -10 -8 -12 -8 -3 -112 -222 -112 -237 0 -5 -19
-12 -42 -16 -24 -4 -48 -11 -54 -16 -7 -6 -16 -4 -24 6 -9 10 -9 15 -1 15 6 0
11 -5 11 -11 0 -5 5 -7 10 -4 18 11 -8 33 -33 28 -20 -4 -20 -3 -4 7 14 9 22
9 33 0 9 -8 14 -9 14 -2 0 6 -9 17 -20 25 -18 13 -19 15 -5 21 9 3 14 2 11 -3
-3 -5 2 -15 11 -22 14 -12 15 -11 9 7 -5 16 0 23 19 32 19 9 25 9 25 0 0 -6 3
-9 6 -6 3 4 0 16 -6 28 -9 16 -9 25 1 36 7 9 8 14 1 14 -6 0 -14 -4 -17 -10
-3 -5 -16 -15 -28 -20 -22 -11 -22 -11 -2 5 11 9 19 22 17 30 -1 7 2 16 7 20
6 3 8 13 5 23 -5 14 -4 15 5 2 6 -9 7 -18 1 -24 -19 -19 -10 -29 10 -11 11 10
17 22 14 26 -3 5 2 6 11 3 11 -5 14 -2 9 9 -3 9 -11 14 -19 11 -15 -6 -28 23
-14 32 6 3 13 3 16 0 4 -3 1 -6 -6 -6 -7 0 -9 -5 -6 -10 4 -6 11 -7 17 -4 6 4
14 0 19 -7 7 -11 9 -11 9 3 0 9 6 19 13 22 6 3 1 3 -13 -1 -21 -5 -23 -4 -13
8 6 8 11 29 11 47 -1 26 -4 30 -15 21 -10 -9 -10 -15 -2 -25 12 -15 4 -34 -14
-33 -9 0 -9 2 1 6 6 2 12 9 12 14 0 6 -4 8 -9 5 -13 -9 -7 19 8 38 11 13 11
16 0 17 -10 0 -10 2 -2 6 22 8 28 4 28 -22 1 -14 5 -24 10 -23 6 2 8 8 7 13
-2 6 -5 18 -7 28 -2 9 -6 21 -10 26 -3 5 1 16 9 24 18 17 11 28 -12 21 -14 -4
-13 -3 1 6 14 9 22 9 35 -2 15 -11 15 -11 5 3 -7 9 -9 20 -5 24 4 5 1 5 -5 1
-8 -4 -13 -1 -13 9 0 9 -5 13 -11 9 -8 -5 -8 -1 0 14 16 30 14 36 -6 21 -15
-11 -14 -10 1 9 14 16 15 22 6 22 -11 0 -11 3 -2 12 15 15 16 52 1 42 -8 -5
-8 -1 0 14 15 28 14 55 -1 46 -10 -6 -10 -4 0 7 14 16 16 33 2 24 -19 -12 -10
6 14 28 21 20 22 23 6 23 -10 0 -16 -5 -13 -10 3 -5 2 -6 -4 -3 -5 3 -9 22 -8
42 1 19 -2 38 -7 41 -4 3 -1 18 9 34 13 23 19 26 27 16 6 -8 23 -16 38 -18z
m131 5 c-3 -7 -9 -10 -14 -7 -14 8 -11 21 5 21 8 0 12 -6 9 -14z m180 -57 c23
-11 22 -21 -2 -23 -11 -1 -26 6 -35 16 -15 17 -15 18 1 16 10 -1 26 -5 36 -9z
m1022 -78 c-1 -13 -9 -22 -23 -24 -27 -5 -36 10 -17 26 9 8 15 8 15 2 0 -6 -6
-13 -12 -15 -10 -4 -10 -6 -1 -6 7 -1 17 8 23 19 14 26 17 25 15 -2z m-735
-18 c-8 -5 -19 -10 -25 -10 -5 0 -3 5 5 10 8 5 20 10 25 10 6 0 3 -5 -5 -10z
m-70 -8 c0 -5 -7 -9 -15 -9 -8 0 -12 4 -9 9 3 4 9 8 15 8 5 0 9 -4 9 -8z m125
-23 c-3 -4 3 -12 12 -18 10 -6 13 -11 6 -11 -6 0 -15 5 -18 10 -4 6 -11 8 -16
5 -5 -4 -9 -1 -9 6 0 9 -3 9 -14 0 -10 -8 -16 -9 -21 -1 -3 6 -11 8 -16 5 -5
-4 -9 -2 -9 3 0 13 32 25 39 15 3 -4 15 -10 25 -11 18 -3 19 -2 5 15 -13 16
-13 17 3 4 10 -7 15 -17 13 -22z m22 -1 c-3 -8 -6 -5 -6 6 -1 11 2 17 5 13 3
-3 4 -12 1 -19z m26 -4 c-5 -14 -3 -14 16 -3 19 12 24 11 46 -14 14 -15 21
-27 15 -27 -6 0 -13 7 -16 15 -4 8 -11 12 -18 8 -28 -18 -66 2 -51 27 10 16
15 12 8 -6z m133 -26 c-5 13 -3 22 3 22 6 0 10 -3 10 -7 -3 -20 2 -34 11 -28
6 3 10 1 10 -5 0 -6 4 -9 10 -5 5 3 8 11 6 18 -1 7 -1 8 2 4 2 -4 11 -2 20 5
10 7 6 0 -7 -14 -18 -21 -28 -25 -41 -18 -11 6 -21 5 -29 -3 -7 -7 -11 -8 -9
-1 2 6 -10 23 -27 38 l-30 28 39 -28 c37 -27 38 -28 32 -6z m264 1 c0 -5 -5
-9 -12 -9 -6 0 -8 3 -5 7 4 3 1 13 -6 22 -11 14 -10 14 6 2 9 -7 17 -17 17
-22z m-83 -11 c-3 -8 -6 -5 -6 6 -1 11 2 17 5 13 3 -3 4 -12 1 -19z m24 -11
c-6 -8 -9 -16 -6 -19 3 -2 -2 -5 -10 -5 -18 0 -19 4 -2 22 15 18 33 20 18 2z
m-1101 -151 c0 -3 -4 -8 -10 -11 -5 -3 -10 -1 -10 4 0 6 5 11 10 11 6 0 10 -2
10 -4z m374 -39 c-3 -9 -11 -14 -17 -10 -6 4 -8 0 -4 -10 3 -10 2 -17 -3 -17
-16 0 -11 30 6 37 9 3 13 12 9 22 -4 11 -3 13 5 5 6 -6 8 -18 4 -27z m2277 -7
c6 0 8 4 5 8 -3 5 2 9 11 9 13 0 12 -4 -5 -17 -12 -10 -18 -20 -15 -24 4 -3 1
-6 -5 -6 -7 0 -12 -5 -12 -12 0 -6 3 -8 7 -5 3 4 15 -1 25 -10 15 -14 19 -14
16 -3 -2 9 3 13 12 11 8 -2 23 -3 33 -3 9 0 17 -5 17 -11 0 -7 4 -6 10 3 8 13
11 12 25 -5 13 -17 14 -17 9 -2 -4 10 -20 25 -36 33 -20 10 -28 11 -23 3 6 -8
4 -10 -5 -4 -9 6 -11 4 -5 -5 5 -9 4 -11 -4 -6 -6 4 -9 12 -5 17 3 5 0 16 -6
24 -9 11 -9 15 -1 15 6 0 11 -4 11 -9 0 -5 8 -11 18 -15 9 -3 24 -9 32 -12 12
-5 13 -4 3 7 -7 7 -13 18 -13 24 1 10 20 -18 22 -32 1 -5 8 -13 17 -20 13 -9
20 -8 35 5 11 9 16 12 13 5 -4 -6 -3 -14 2 -17 5 -3 8 -26 7 -50 -3 -59 -41
-115 -118 -171 -61 -45 -216 -125 -243 -125 -7 0 -16 -4 -19 -9 -3 -4 -17 -7
-31 -6 -14 2 -25 0 -25 -4 0 -4 -6 -8 -14 -8 -8 0 -12 6 -9 14 3 8 8 12 10 9
6 -6 33 19 33 29 0 4 -7 5 -14 2 -10 -4 -13 -1 -10 8 5 11 10 12 24 2 14 -8
16 -15 8 -24 -7 -9 -7 -13 1 -13 10 0 15 14 12 34 -1 5 5 6 13 3 9 -4 18 -1
22 5 4 6 3 8 -4 4 -6 -3 -14 -1 -18 5 -4 6 -1 15 7 20 43 26 45 28 29 39 -8 5
-24 7 -35 4 -19 -5 -19 -4 -3 9 10 8 14 18 10 23 -4 5 -3 6 2 2 5 -4 18 -3 30
3 19 9 19 9 4 -4 -22 -17 -23 -24 -3 -24 8 0 12 4 9 8 -2 4 1 11 7 14 5 4 8
14 5 22 -4 10 -2 13 8 10 10 -4 13 -1 9 9 -4 10 0 13 13 8 15 -4 16 -4 5 4 -8
6 -12 19 -8 31 3 14 -2 26 -16 36 -12 8 -16 15 -10 15 7 0 15 -5 18 -10 7 -12
25 -4 25 11 0 6 -4 7 -10 4 -5 -3 -10 -2 -10 4 0 5 9 9 19 8 20 -1 23 -17 7
-29 -6 -3 -11 -19 -13 -35 -2 -23 -1 -24 6 -8 5 11 6 24 3 29 -3 5 2 6 12 3
10 -4 15 -3 11 3 -3 6 0 10 7 10 9 0 9 3 -2 10 -8 5 -10 10 -5 10 6 0 1 7 -9
15 -11 8 -15 15 -9 15 7 0 20 -8 29 -17 17 -17 18 -17 11 0 -5 14 -2 20 14 24
16 4 17 8 7 14 -16 11 -28 11 -27 2 3 -17 -2 -24 -11 -18 -6 4 -1 18 14 36 14
16 24 35 22 42 -1 6 -1 9 1 5 3 -5 9 -8 14 -8z m-38 -7 c-7 -2 -19 -2 -25 0
-7 3 -2 5 12 5 14 0 19 -2 13 -5z m77 -9 c0 -3 -7 -12 -15 -20 -16 -17 -18
-14 -9 10 6 15 24 23 24 10z m124 -19 c-4 -8 -11 -12 -17 -8 -8 5 -7 8 1 11 7
2 9 9 6 14 -4 7 -2 8 4 4 6 -4 9 -13 6 -21z m-437 1 c0 -8 -8 -13 -19 -11 -19
4 -25 -10 -8 -18 6 -3 5 -4 -2 -3 -16 3 -17 31 -1 31 6 0 15 3 19 8 10 10 11
9 11 -7z m218 -2 c-13 -14 -19 -14 -28 -4 -9 10 -9 11 0 6 6 -3 14 -2 18 4 3
5 11 10 16 10 6 0 3 -7 -6 -16z m-2251 -16 c15 -17 16 -20 2 -15 -9 4 -19 -1
-25 -11 -6 -9 -11 -12 -11 -5 0 6 5 15 11 18 6 4 8 13 5 21 -7 19 -4 18 18 -8z
m36 12 c0 -5 -8 -10 -17 -10 -15 0 -16 2 -3 10 19 12 20 12 20 0z m560 -44
c-13 -13 -42 -17 -34 -5 3 5 9 7 14 4 5 -3 11 -1 15 5 3 5 1 10 -5 10 -6 0 -8
5 -4 11 4 8 9 7 15 -2 4 -8 4 -18 -1 -23z m1375 24 c-3 -5 -2 -10 3 -10 6 0
12 -7 16 -15 7 -19 1 -19 -18 1 -14 14 -14 34 0 34 3 0 2 -4 -1 -10z m241 -24
c-25 -26 -37 -24 -13 2 10 10 14 22 10 26 -4 4 0 4 9 1 14 -6 13 -9 -6 -29z
m-279 5 c-10 -4 -17 -11 -16 -16 1 -6 -5 -11 -14 -13 -9 -2 -17 1 -17 7 0 6 8
7 18 4 14 -6 15 -4 5 8 -10 12 -7 15 15 16 21 1 23 0 9 -6z m-94 -36 c-3 -9
-8 -14 -10 -11 -3 3 -2 9 2 15 9 16 15 13 8 -4z m37 0 c7 -9 8 -15 2 -15 -5 0
-12 7 -16 15 -3 8 -4 15 -2 15 2 0 9 -7 16 -15z m-1412 -26 c-2 -6 3 -14 11
-17 9 -3 11 0 6 8 -5 9 -4 11 3 6 7 -4 12 -2 12 5 0 7 3 10 6 7 9 -9 -16 -49
-26 -43 -5 3 -13 -3 -19 -12 -8 -14 -9 -10 -6 17 4 41 4 40 10 40 3 0 4 -5 3
-11z m1221 -23 c-3 -3 -11 5 -18 17 -13 21 -12 21 5 5 10 -10 16 -20 13 -22z
m511 0 c0 -4 -6 -3 -14 3 -10 8 -16 9 -21 1 -3 -5 -1 -10 5 -10 6 0 8 -5 4
-11 -4 -8 -9 -7 -15 2 -4 7 -4 18 1 25 6 6 6 14 2 19 -4 4 3 1 16 -6 12 -8 22
-18 22 -23z m-2250 4 c0 -5 -2 -10 -4 -10 -3 0 -8 5 -11 10 -3 6 -1 10 4 10 6
0 11 -4 11 -10z m-15 -20 c3 -5 1 -10 -4 -10 -6 0 -11 5 -11 10 0 6 2 10 4 10
3 0 8 -4 11 -10z m2259 -12 c-30 -48 -57 -60 -69 -30 -5 14 -4 15 6 5 7 -7 17
-13 23 -13 5 0 7 3 3 6 -3 4 4 15 16 25 26 22 31 23 21 7z m-504 -12 c0 -2 -8
-10 -17 -17 -16 -13 -17 -12 -4 4 13 16 21 21 21 13z m970 -10 c0 -3 -4 -8
-10 -11 -5 -3 -10 -1 -10 4 0 6 5 11 10 11 6 0 10 -2 10 -4z m-2266 -47 c-3
-5 -10 -7 -15 -3 -5 3 -7 10 -3 15 3 5 10 7 15 3 5 -3 7 -10 3 -15z m-810 -37
c3 -5 0 -9 -7 -9 -7 0 -21 -4 -32 -8 l-20 -8 20 16 c23 19 32 21 39 9z m316
-20 c-21 -7 -23 -6 -26 10 -2 14 1 15 17 5 11 -7 15 -13 9 -15z m2240 8 c-20
-13 -30 -12 -30 1 0 5 4 8 9 4 5 -3 13 0 16 6 4 5 10 8 13 4 4 -3 0 -10 -8
-15z m-30 -32 c0 -19 -16 -5 -17 14 -2 18 0 20 7 8 5 -8 10 -18 10 -22z m493
5 c-5 -12 -3 -14 7 -8 9 5 11 4 6 -3 -11 -19 -26 -14 -26 8 0 11 4 20 10 20 5
0 6 -7 3 -17z m-986 -11 c20 -16 21 -18 6 -37 -13 -17 -15 -17 -10 -2 4 11 -1
25 -13 37 -25 25 -13 26 17 2z m-23 -18 c4 -9 4 -19 1 -22 -3 -3 -5 0 -5 7 0
7 -4 10 -8 7 -5 -3 -9 1 -9 9 0 20 13 19 21 -1z m-1730 -9 c-4 -8 -8 -15 -10
-15 -2 0 -4 7 -4 15 0 8 4 15 10 15 5 0 7 -7 4 -15z m172 -12 c-2 -16 -5 -30
-5 -32 -1 -2 -7 2 -14 8 -11 8 -13 6 -13 -9 1 -19 -16 -29 -21 -13 -4 12 35
73 47 73 6 0 9 -12 6 -27z m1998 -21 c-8 -18 -18 -32 -20 -32 -3 0 -4 3 -2 8
20 41 32 61 35 59 2 -2 -4 -18 -13 -35z m526 6 c0 -11 -12 -10 -30 2 -12 7
-10 9 8 7 12 0 22 -5 22 -9z m38 -8 c-16 -25 -35 -33 -44 -17 -4 7 -4 9 0 5 5
-4 17 2 29 13 26 24 30 24 15 -1z m-2760 -10 c-7 -10 -14 -17 -17 -15 -4 4 18
35 25 35 2 0 -1 -9 -8 -20z m2700 -10 c8 -14 9 -20 1 -20 -6 0 -8 -7 -5 -16 3
-9 2 -12 -5 -9 -6 4 -8 14 -4 22 3 9 -2 24 -12 35 -13 14 -13 17 -2 13 8 -3
20 -14 27 -25z m-29 -14 c-3 -3 -11 5 -18 17 -13 21 -12 21 5 5 10 -10 16 -20
13 -22z m-20 -14 c-1 -16 -2 -16 -6 0 -3 11 -11 15 -21 12 -14 -5 -14 -4 -2 4
18 13 30 6 29 -16z m-932 -4 c-3 -8 -6 -5 -6 6 -1 11 2 17 5 13 3 -3 4 -12 1
-19z m913 -8 c0 -5 -4 -10 -10 -10 -5 0 -10 5 -10 10 0 6 5 10 10 10 6 0 10
-4 10 -10z m-69 -13 c-6 -8 -8 -17 -4 -20 9 -10 23 -8 21 2 -3 9 2 11 25 11 6
0 4 -5 -6 -11 -14 -8 -15 -14 -7 -32 9 -19 9 -20 -2 -7 -7 8 -21 21 -30 28
-16 13 -17 11 -13 -22 3 -19 1 -38 -4 -41 -5 -3 -9 7 -9 22 1 46 -1 55 -14 47
-7 -4 -8 -3 -4 5 4 6 11 9 16 6 4 -3 13 2 20 10 7 8 15 15 17 15 3 0 0 -6 -6
-13z m-2296 -24 c-4 -10 -8 -31 -10 -48 -4 -46 -4 -47 -14 -41 -5 3 -14 0 -20
-8 -7 -8 -21 -12 -33 -8 -16 4 -19 2 -13 -8 5 -9 4 -11 -4 -6 -6 4 -8 12 -5
18 5 8 1 9 -10 5 -28 -11 0 30 32 47 15 8 38 26 52 40 30 30 34 31 25 9z m140
8 c3 -5 2 -12 -3 -15 -5 -3 -9 1 -9 9 0 17 3 19 12 6z m2112 -24 c2 -3 -3 -7
-11 -10 -8 -3 -20 0 -26 8 -10 12 -8 13 10 10 13 -2 25 -6 27 -8z m-2091 -9
c4 -7 3 -8 -4 -4 -7 4 -12 3 -12 -2 0 -6 -7 -12 -15 -16 -19 -7 -19 -1 1 18
18 19 21 19 30 4z m617 -12 c9 -7 17 -17 17 -21 0 -5 -8 -1 -17 7 -10 9 -25
18 -33 21 -13 5 -13 5 0 6 8 0 23 -6 33 -13z m1427 4 c0 -5 -4 -10 -10 -10 -5
0 -10 5 -10 10 0 6 5 10 10 10 6 0 10 -4 10 -10z m561 -44 c-6 -7 -7 -17 -3
-21 4 -5 1 -5 -6 -1 -9 6 -10 11 -3 20 6 7 7 17 3 21 -4 5 -1 5 6 1 9 -6 10
-11 3 -20z m-3087 -8 c-3 -13 -6 -28 -6 -35 -1 -7 -5 -10 -10 -7 -4 3 -3 14 2
25 6 10 8 19 5 19 -4 0 -3 5 0 10 10 17 14 11 9 -12z m-379 -8 c-3 -5 -11 -10
-16 -10 -6 0 -7 5 -4 10 3 6 11 10 16 10 6 0 7 -4 4 -10z m841 -20 c0 -12 -4
-16 -9 -11 -5 5 -6 14 -3 20 10 15 12 14 12 -9z m2609 0 c3 -5 1 -10 -4 -10
-6 0 -11 5 -11 10 0 6 2 10 4 10 3 0 8 -4 11 -10z m-2010 -10 c3 -5 1 -10 -4
-10 -6 0 -11 5 -11 10 0 6 2 10 4 10 3 0 8 -4 11 -10z m1119 -48 c20 -24 36
-39 36 -34 0 6 -11 24 -25 40 -21 25 -22 31 -9 36 9 3 12 2 9 -5 -8 -11 22
-49 38 -49 6 0 2 9 -8 20 -15 17 -16 23 -5 33 10 10 12 9 8 -3 -3 -9 3 -26 13
-39 11 -13 19 -21 19 -18 0 3 3 13 6 22 4 10 2 15 -6 13 -7 -2 -15 4 -17 12
-3 10 -2 11 4 4 4 -6 18 -10 30 -9 17 1 20 -1 12 -11 -7 -8 -7 -14 1 -19 6 -4
9 -13 6 -21 -3 -8 -1 -14 5 -14 7 0 9 10 5 25 -6 23 -4 25 25 23 17 -1 35 -10
40 -20 6 -10 15 -15 21 -12 7 5 8 2 4 -5 -5 -8 -3 -11 5 -9 8 1 14 -2 14 -7 0
-6 -4 -9 -8 -7 -5 1 -5 -2 -2 -8 4 -6 13 -9 21 -6 21 8 37 -40 32 -99 -6 -62
-35 -126 -89 -196 -103 -131 -216 -206 -327 -216 -58 -5 -62 -4 -92 26 -17 17
-28 36 -24 42 3 6 0 16 -7 21 -11 8 -10 8 4 4 15 -5 17 -2 12 13 -3 11 -1 22
4 26 6 3 8 0 5 -8 -8 -23 12 -29 27 -9 13 15 12 16 -3 3 -17 -13 -26 -2 -10
13 4 4 8 12 8 17 3 22 5 23 15 9 9 -12 10 -11 4 5 -11 33 -11 40 1 38 6 -1 10
8 9 20 -1 12 3 26 9 30 7 6 6 7 -4 4 -8 -2 -14 -10 -12 -16 1 -7 -2 -10 -8 -6
-6 4 -5 13 2 25 10 15 9 23 -7 40 -16 18 -16 20 -2 14 9 -3 17 -10 17 -16 0
-5 4 -6 10 -3 6 3 7 -1 4 -9 -3 -9 -1 -16 4 -16 6 0 9 13 7 30 -2 16 0 32 5
35 6 4 7 -2 3 -12 -6 -15 -5 -16 9 -3 9 8 13 17 9 20 -12 9 -12 32 0 46 6 8 8
14 3 14 -5 0 0 6 10 12 19 11 19 11 0 26 -14 11 -15 13 -3 9 17 -6 39 10 39
27 0 6 -5 5 -12 -2 -7 -7 -17 -12 -23 -12 -5 0 -2 5 8 11 9 5 17 15 17 20 0 6
-4 7 -10 4 -5 -3 -10 -1 -10 4 0 6 5 11 11 11 5 0 7 5 4 10 -3 6 -1 10 5 10 7
0 10 -6 7 -14 -3 -8 0 -22 7 -31 10 -14 17 -16 32 -7 14 9 15 12 4 13 -8 1
-18 1 -22 0 -5 0 -8 4 -8 10 0 6 10 9 23 7 15 -3 24 0 24 9 0 8 -7 11 -17 8
-9 -3 -25 4 -35 15 -16 18 -17 20 -2 14 9 -3 17 -10 17 -15 0 -5 5 -9 11 -9 5
0 8 4 5 9 -3 5 1 12 10 15 13 5 14 9 4 21 -7 8 -9 15 -5 15 4 0 14 -8 21 -17
17 -24 13 2 -5 37 -16 30 -14 28 33 -28z m876 13 c0 -5 -5 -3 -10 5 -5 8 -10
20 -10 25 0 6 5 3 10 -5 5 -8 10 -19 10 -25z m-3072 0 c-3 -3 -9 2 -12 12 -6
14 -5 15 5 6 7 -7 10 -15 7 -18z m2127 -5 c-17 -19 -17 -20 0 -20 10 0 16 -3
12 -6 -3 -4 -13 -4 -22 0 -14 5 -14 8 2 30 10 13 20 22 22 20 2 -2 -4 -13 -14
-24z m-1065 10 c0 -5 5 -10 11 -10 5 0 7 5 4 10 -3 6 -1 10 4 10 14 0 14 -17
0 -26 -6 -3 -18 1 -27 10 -11 10 -12 16 -4 16 7 0 12 -4 12 -10z m-1089 -33
c-10 -9 -11 -8 -5 6 3 10 9 15 12 12 3 -3 0 -11 -7 -18z m1069 13 c0 -5 -2
-10 -4 -10 -3 0 -8 5 -11 10 -3 6 -1 10 4 10 6 0 11 -4 11 -10z m2001 -13 c-6
-8 -8 -16 -5 -19 3 -3 1 -9 -4 -12 -6 -3 -9 0 -8 6 2 16 15 38 23 38 3 0 0 -6
-6 -13z m-1998 -21 c-10 -13 -20 -22 -22 -20 -4 4 29 44 36 44 2 0 -4 -11 -14
-24z m2198 -23 c13 -17 13 -17 -6 -3 -11 8 -22 16 -24 17 -2 2 0 3 6 3 6 0 17
-8 24 -17z m-11 -24 c0 -5 -4 -7 -10 -4 -5 3 -10 1 -10 -6 0 -7 -3 -10 -6 -6
-8 7 4 27 17 27 5 0 9 -5 9 -11z m-1179 -22 c-10 -9 -11 -8 -5 6 3 10 9 15 12
12 3 -3 0 -11 -7 -18z m1797 -52 c-3 -3 -9 2 -12 12 -6 14 -5 15 5 6 7 -7 10
-15 7 -18z m-1793 -3 c-3 -3 -11 0 -18 7 -9 10 -8 11 6 5 10 -3 15 -9 12 -12z
m-15 -23 c0 -4 -10 -13 -22 -19 -21 -10 -21 -10 -6 3 14 11 15 16 5 26 -9 10
-8 11 6 6 9 -4 17 -11 17 -16z m1125 10 c11 -16 1 -19 -13 -3 -7 8 -8 14 -3
14 5 0 13 -5 16 -11z m672 -6 c5 -14 -25 -25 -32 -12 -4 5 -3 9 2 8 20 -4 27
2 13 12 -12 9 -12 10 -1 7 8 -3 16 -9 18 -15z m-690 -9 c-3 -3 -12 -4 -19 -1
-8 3 -5 6 6 6 11 1 17 -2 13 -5z m709 -20 c-10 -7 -16 -17 -12 -22 3 -5 -5 -8
-16 -7 -12 1 -24 8 -26 16 -3 11 -1 11 7 -1 7 -9 11 -10 11 -3 0 6 9 15 20 18
11 4 17 11 14 17 -5 7 -2 8 6 3 10 -6 9 -11 -4 -21z m-722 -10 c3 -8 2 -12 -4
-9 -6 3 -10 1 -10 -6 0 -7 -2 -10 -5 -7 -5 5 4 38 10 38 2 0 6 -7 9 -16z
m-1105 -15 c-22 -13 -31 -11 -17 5 7 8 17 12 22 9 4 -3 2 -9 -5 -14z m1766 -9
c3 -5 1 -10 -4 -10 -6 0 -11 5 -11 10 0 6 2 10 4 10 3 0 8 -4 11 -10z m-3921
-54 c-3 -9 -10 -16 -15 -16 -6 0 -6 7 -1 18 5 9 7 24 5 32 -3 11 -1 11 6 -2 6
-9 8 -23 5 -32z m3183 15 c0 -11 -7 -17 -14 -14 -9 4 -9 8 0 19 16 17 16 17
14 -5z m-1074 -18 c8 -8 -12 -33 -26 -33 -6 0 -2 7 9 16 17 14 17 15 1 10 -11
-3 -16 -2 -12 4 7 12 19 13 28 3z m1040 -30 c-16 -24 -33 -31 -33 -12 0 5 5 7
12 3 7 -5 9 -2 5 8 -7 19 -2 25 17 25 12 0 12 -4 -1 -24z m-3162 -1 c8 2 16
-1 17 -7 1 -5 -6 -10 -16 -10 -18 0 -32 13 -32 30 0 6 4 4 9 -3 4 -8 15 -12
22 -10z m3639 -6 c0 -3 -4 -8 -10 -11 -5 -3 -10 -1 -10 4 0 6 5 11 10 11 6 0
10 -2 10 -4z m-1510 -25 c0 -12 -20 -25 -27 -18 -7 7 6 27 18 27 5 0 9 -4 9
-9z m-2944 -20 c2 -7 0 -7 -3 -1 -3 7 -9 8 -17 1 -9 -8 -13 -7 -13 3 0 17 30
14 33 -3z m3944 4 c0 -8 -4 -15 -10 -15 -5 0 -7 7 -4 15 4 8 8 15 10 15 2 0 4
-7 4 -15z m40 -6 c0 -19 -2 -24 -11 -21 -6 1 -18 -2 -28 -7 -12 -7 -25 -4 -47
10 -16 10 -24 19 -18 19 5 0 19 -6 29 -14 25 -18 71 -1 54 21 -9 11 -8 12 5 7
9 -3 16 -10 16 -15z m-478 -21 c-8 -8 -9 -4 -5 13 4 13 8 18 11 10 2 -7 -1
-18 -6 -23z m1161 15 c-4 -10 -2 -14 5 -9 6 3 13 2 17 -4 4 -6 12 -7 18 -3 7
4 6 -1 -2 -11 -14 -16 -15 -16 -34 2 -11 11 -16 25 -13 31 11 17 16 13 9 -6z
m-1772 -16 c-10 -9 -11 -8 -5 6 3 10 9 15 12 12 3 -3 0 -11 -7 -18z m39 4 c0
-6 -5 -13 -10 -16 -6 -4 -8 -9 -6 -13 2 -4 -7 -8 -21 -9 l-26 -1 27 17 c14 10
23 21 19 24 -3 4 -1 7 5 7 7 0 12 -4 12 -9z m960 -16 c7 -8 19 -15 27 -15 8 0
13 -5 11 -11 -2 -6 -7 -10 -11 -10 -10 2 -57 51 -48 51 5 0 14 -7 21 -15z
m757 -17 c-3 -8 -6 -5 -6 6 -1 11 2 17 5 13 3 -3 4 -12 1 -19z m-2782 -19 c4
-5 10 -7 15 -4 5 3 7 -4 5 -16 -5 -25 -15 -38 -15 -19 0 10 -3 10 -15 0 -8 -7
-12 -17 -8 -23 4 -6 1 -7 -6 -2 -9 5 -7 13 8 29 20 21 19 36 -2 36 -6 0 -8 -3
-4 -6 3 -4 0 -13 -8 -20 -18 -19 -31 -18 -15 1 6 8 9 18 7 22 -3 5 3 9 13 10
11 1 22 -3 25 -8z m411 -1 c4 -6 3 -8 -4 -4 -6 3 -15 -2 -21 -11 -12 -20 -14
-13 -5 11 7 19 20 21 30 4z m5 -38 c6 0 7 5 4 10 -3 6 -1 10 4 10 16 0 13 -15
-6 -33 -17 -14 -18 -14 -19 11 -1 15 1 21 3 15 3 -7 9 -13 14 -13z m1614 10
c3 -6 -1 -7 -9 -4 -18 7 -21 14 -7 14 6 0 13 -4 16 -10z m725 6 c0 -2 -7 -7
-16 -10 -8 -3 -12 -2 -9 4 6 10 25 14 25 6z m-1152 -25 c-7 -9 -13 -18 -15
-20 -1 -2 -1 5 0 16 0 11 7 20 14 20 10 0 10 -4 1 -16z m-3523 -3 c5 4 5 2 1
-5 -8 -14 -36 -6 -36 9 0 7 5 6 13 -1 8 -6 18 -7 22 -3z m1868 -6 c9 -10 13
-23 8 -30 -6 -10 -13 -8 -32 7 -13 11 -18 20 -11 21 6 0 12 -4 12 -10 0 -5 8
-10 18 -10 14 1 13 4 -7 20 -13 11 -19 20 -14 20 6 0 17 -8 26 -18z m437 8 c0
-5 -8 -10 -17 -10 -15 0 -16 2 -3 10 19 12 20 12 20 0z m-30 -36 c0 -8 -4 -14
-10 -14 -5 0 -6 7 -3 17 5 12 3 14 -7 8 -9 -5 -11 -4 -6 4 9 14 26 5 26 -15z
m1224 10 c3 -8 2 -12 -4 -9 -6 3 -10 10 -10 16 0 14 7 11 14 -7z m-1674 -15
c0 -5 -4 -9 -8 -9 -5 0 -9 7 -9 15 0 8 4 12 9 9 4 -3 8 -9 8 -15z m1653 -16
c-5 -11 -8 -13 -11 -5 -3 10 -7 10 -20 0 -12 -9 -12 -6 2 9 21 25 39 22 29 -4z
m-2793 -5 c0 -6 -6 -5 -15 2 -8 7 -15 14 -15 16 0 2 7 1 15 -2 8 -4 15 -11 15
-16z m1116 0 c4 -7 4 -10 -1 -6 -4 4 -14 0 -22 -10 -13 -15 -13 -15 -3 6 12
25 16 27 26 10z m-1144 -17 c6 10 7 6 2 -11 l-6 -25 27 25 c16 14 25 19 20 11
-6 -11 -4 -13 10 -7 16 6 16 4 4 -10 -8 -10 -15 -12 -17 -5 -2 7 -9 5 -20 -5
-14 -15 -17 -15 -29 2 -7 10 -12 25 -12 33 1 11 3 10 6 -3 4 -15 7 -16 15 -5z
m2172 1 c3 -5 -1 -9 -9 -9 -8 0 -12 4 -9 9 3 4 7 8 9 8 2 0 6 -4 9 -8z m-1068
-36 c1 -8 -10 -19 -25 -26 l-26 -12 23 22 c12 12 19 27 16 33 -4 7 -3 8 1 4 5
-4 10 -14 11 -21z m431 -22 c-12 -12 -24 -19 -27 -17 -3 3 4 11 15 19 11 8 19
23 17 32 -2 15 -1 15 7 2 8 -11 5 -20 -12 -36z m1213 -6 c0 -6 -6 -5 -15 2 -8
7 -15 14 -15 16 0 2 7 1 15 -2 8 -4 15 -11 15 -16z m-56 -16 c3 -5 -1 -9 -9
-9 -8 0 -12 4 -9 9 3 4 7 8 9 8 2 0 6 -4 9 -8z m-2829 -22 c-15 -16 -15 -22
-5 -35 8 -10 9 -15 1 -15 -6 0 -11 5 -11 10 0 6 -5 10 -11 10 -5 0 -7 -4 -4
-10 3 -5 2 -10 -4 -10 -5 0 -9 9 -8 19 0 11 4 18 7 16 4 -2 14 5 23 16 9 10
20 19 23 19 4 0 -1 -9 -11 -20z m2265 0 c0 -5 -7 -7 -15 -4 -8 4 -15 8 -15 10
0 2 7 4 15 4 8 0 15 -4 15 -10z m-1095 -11 c11 -16 1 -19 -13 -3 -7 8 -8 14
-3 14 5 0 13 -5 16 -11z m17 -31 c-6 -6 -7 0 -4 19 5 21 7 23 10 9 2 -10 0
-22 -6 -28z m1654 30 c4 -6 -1 -17 -10 -24 -10 -7 -15 -17 -11 -23 3 -6 3 -11
-2 -12 -4 0 -18 -2 -30 -3 -18 -2 -20 0 -11 11 9 11 13 12 19 1 6 -9 9 -8 10
7 1 11 1 23 0 27 0 4 6 5 14 2 8 -4 15 -1 15 4 0 6 -10 13 -22 15 -23 4 -23 4
-1 6 12 0 25 -4 29 -11z m634 -29 c0 -11 -29 -19 -34 -10 -3 5 -3 10 -1 13 8
7 35 5 35 -3z m27 -12 c-2 -7 0 -21 6 -32 5 -11 6 -17 2 -13 -5 4 -15 2 -23
-5 -13 -10 -14 -9 -6 8 6 11 9 30 9 42 -1 12 2 20 7 17 5 -3 7 -11 5 -17z
m-2360 7 c-3 -3 -12 -4 -19 -1 -8 3 -5 6 6 6 11 1 17 -2 13 -5z m23 -4 c0 -6
-8 -14 -17 -17 -10 -4 -21 -11 -25 -17 -5 -7 -8 -6 -8 2 0 8 9 16 20 19 11 3
20 9 20 14 0 5 2 9 5 9 3 0 5 -5 5 -10z m-1215 -10 c3 -6 18 -8 31 -6 21 4 24
3 14 -9 -7 -8 -16 -13 -20 -10 -5 3 -11 1 -15 -4 -7 -12 -35 -3 -35 11 0 6 6
5 15 -2 10 -8 15 -9 15 -2 0 6 -8 16 -17 21 -10 6 -13 11 -6 11 6 0 15 -5 18
-10z m2761 -28 c-18 -16 -18 -16 -6 6 6 13 14 21 18 18 3 -4 -2 -14 -12 -24z
m1363 7 c1 8 4 12 7 8 3 -3 3 -11 -1 -17 -5 -8 -11 -8 -21 1 -7 6 -11 16 -7
22 4 6 9 3 14 -9 5 -11 8 -13 8 -5z m-599 1 c0 -5 -2 -10 -4 -10 -3 0 -8 5
-11 10 -3 6 -1 10 4 10 6 0 11 -4 11 -10z m-850 -3 c0 -2 -18 -18 -41 -36 -25
-20 -36 -26 -29 -14 7 11 24 26 39 35 30 19 31 19 31 15z m-78 -39 c-6 -6 -19
-13 -27 -14 -13 -2 -14 1 -4 12 6 7 16 11 22 7 7 -4 8 0 3 13 -6 15 -5 17 5 7
10 -10 10 -16 1 -25z m-2742 -3 c0 -1 -6 -8 -14 -14 -11 -9 -16 -9 -22 0 -5 8
-3 9 6 4 10 -6 12 -4 7 8 -4 11 -2 14 9 10 7 -3 14 -6 14 -8z m-225 -7 c5 4 5
1 1 -6 -6 -9 -11 -10 -20 -3 -7 6 -17 7 -21 3 -5 -4 -5 -1 -1 6 6 9 11 10 20
3 7 -6 17 -7 21 -3z m50 -26 c-17 -15 -18 -15 -6 0 7 9 9 23 5 30 -6 10 -4 11
7 0 11 -10 10 -15 -6 -30z"/>
<path d="M2156 3486 c6 -16 4 -17 -13 -8 -20 11 -33 7 -33 -10 0 -5 10 -7 23
-3 19 5 20 5 4 -5 -19 -12 -52 -6 -43 8 2 4 -4 8 -14 8 -10 0 -16 -4 -14 -8 3
-4 2 -8 -3 -8 -4 0 -13 -11 -19 -23 -8 -18 -8 -24 2 -24 7 0 11 4 8 9 -3 4 0
8 5 8 6 0 10 5 9 11 -2 6 4 14 12 16 9 3 11 1 5 -4 -14 -11 -17 -40 -5 -48 5
-3 10 -1 10 4 0 6 3 10 8 9 18 -4 62 15 60 26 -2 6 1 11 7 11 5 0 10 -4 11
-10 0 -5 2 -14 2 -19 1 -4 13 -1 26 8 15 10 27 12 31 6 3 -6 1 -10 -6 -10 -7
0 -9 -3 -6 -6 4 -4 18 1 33 11 21 14 26 14 22 3 -4 -8 0 -15 7 -15 7 0 12 5
11 11 0 6 4 11 9 11 6 0 9 -6 9 -12 -3 -20 13 -15 18 5 6 24 -1 52 -13 52 -6
0 -7 -6 -3 -12 6 -9 3 -9 -9 1 -9 7 -23 11 -31 8 -7 -3 -19 0 -26 6 -9 9 -11
9 -7 1 4 -7 0 -15 -9 -18 -12 -4 -15 -2 -10 9 3 8 1 15 -5 15 -7 0 -9 -10 -5
-25 5 -19 1 -27 -16 -35 -21 -10 -21 -10 -5 3 18 15 24 33 8 22 -6 -3 -8 4 -6
15 2 11 0 18 -6 15 -5 -4 -7 -11 -4 -16 11 -16 -7 -10 -21 9 -13 16 -14 16 -8
-2z m136 -24 c-2 -7 -7 -10 -10 -8 -3 3 -11 1 -18 -5 -17 -14 -39 -2 -25 14
13 17 60 16 53 -1z m-172 -22 c8 6 20 10 25 10 14 -1 -22 -21 -45 -25 -13 -3
-17 1 -13 12 4 9 8 11 12 4 4 -6 12 -7 21 -1z"/>
<path d="M2245 3460 c-3 -5 -1 -10 4 -10 6 0 11 5 11 10 0 6 -2 10 -4 10 -3 0
-8 -4 -11 -10z"/>
<path d="M2346 3454 c-4 -9 -4 -19 -1 -22 3 -3 5 -2 5 2 0 4 9 2 20 -4 25 -14
26 1 1 24 -17 16 -19 16 -25 0z"/>
<path d="M947 3422 c1 -3 -2 -13 -8 -23 -8 -16 -6 -21 12 -27 19 -7 20 -10 6
-15 -10 -4 -17 -1 -17 6 0 8 -4 7 -11 -3 -9 -13 -10 -13 -6 2 3 9 1 19 -6 22
-9 3 -9 5 1 5 14 1 17 31 2 31 -5 0 -9 -6 -7 -12 1 -7 -5 -14 -13 -14 -8 -1
-19 -2 -24 -3 -5 0 -3 -8 4 -16 7 -8 9 -15 5 -15 -4 0 -1 -8 6 -17 13 -16 12
-17 -3 -4 -10 7 -18 10 -18 6 0 -4 -6 -3 -13 4 -18 14 -38 -5 -29 -28 5 -14 3
-14 -10 -3 -15 12 -16 10 -12 -17 3 -16 0 -32 -5 -36 -7 -3 -8 0 -5 9 3 9 1
16 -6 16 -6 0 -9 -4 -6 -9 3 -5 -1 -11 -9 -14 -10 -4 -12 -1 -8 11 3 9 -4 2
-16 -15 -19 -30 -31 -38 -53 -34 -5 0 -7 -2 -7 -7 4 -22 -3 -34 -16 -28 -13 5
-14 2 -4 -15 8 -16 8 -24 -1 -33 -9 -8 -11 -8 -8 1 3 11 -1 13 -24 13 -9 0 -9
-3 1 -9 12 -8 12 -12 -2 -26 -10 -9 -14 -22 -10 -28 4 -6 0 -8 -10 -4 -12 4
-14 2 -10 -10 5 -12 3 -14 -7 -8 -9 5 -11 4 -6 -4 4 -6 13 -8 19 -5 9 5 9 3 0
-6 -10 -11 -15 -11 -28 0 -10 8 -15 9 -15 1 0 -6 5 -11 10 -11 6 0 10 -5 10
-11 0 -5 -4 -7 -10 -4 -5 3 -10 1 -10 -5 0 -6 -5 -8 -10 -5 -6 4 -10 3 -9 -2
1 -4 0 -12 -1 -18 -1 -5 -3 -19 -4 -30 0 -12 -7 -19 -16 -17 -8 2 -12 0 -7 -4
4 -4 -3 -18 -15 -31 -12 -13 -18 -23 -14 -23 5 0 3 -7 -4 -16 -11 -12 -11 -15
0 -12 7 2 14 -2 17 -9 3 -8 -3 -11 -17 -8 -19 4 -20 2 -8 -12 11 -14 11 -16
-3 -11 -12 5 -15 1 -13 -18 1 -13 -2 -24 -8 -24 -6 0 -7 -7 -4 -16 4 -10 -1
-22 -11 -31 -10 -8 -13 -12 -6 -9 7 4 11 -1 10 -14 -1 -11 -6 -20 -11 -20 -19
0 2 -11 30 -16 19 -3 24 -1 16 4 -8 5 -13 12 -13 16 1 3 1 7 0 9 -6 20 -5 36
2 31 5 -3 7 -10 4 -15 -4 -5 -1 -9 4 -9 14 0 14 17 1 25 -5 3 -10 11 -10 18 0
8 3 8 12 -1 7 -7 17 -12 23 -12 5 0 2 5 -8 11 -9 6 -15 15 -11 21 4 7 10 5 16
-3 8 -11 9 -10 4 3 -3 10 2 22 12 27 9 6 12 11 6 11 -6 0 -11 7 -11 15 0 13 9
19 27 17 3 0 7 8 7 19 1 10 -3 19 -8 19 -6 0 -8 4 -4 10 3 5 11 8 18 6 7 -1 9
-1 4 1 -4 3 -4 9 -1 14 3 6 12 5 22 -3 15 -11 15 -11 6 2 -15 21 -11 46 6 42
8 -2 12 0 8 4 -4 4 -3 13 4 21 6 7 8 16 5 20 -10 9 -38 -18 -30 -30 3 -6 1 -7
-5 -3 -8 5 -5 16 10 37 21 28 36 41 22 17 -4 -6 -3 -8 4 -4 5 3 12 1 14 -6 3
-7 7 -5 11 6 4 9 3 15 -2 12 -5 -3 -8 5 -7 17 1 17 6 23 19 19 9 -2 17 1 17 7
0 7 5 9 13 5 8 -5 8 -2 -2 9 -12 15 -11 17 3 17 10 0 14 5 11 11 -5 7 -13 5
-24 -5 -10 -9 -21 -16 -26 -16 -4 0 2 9 14 19 13 11 28 18 35 15 11 -4 61 40
61 54 0 4 6 6 13 4 6 -2 12 4 12 13 0 10 5 13 13 9 6 -4 9 -4 5 1 -10 11 11
47 23 40 5 -4 8 -1 7 7 -2 7 3 12 10 11 6 -2 12 4 12 13 0 8 -4 13 -9 9 -5 -3
-12 -2 -15 3 -2 4 6 9 19 10 19 1 23 -3 21 -23 -2 -13 1 -22 6 -19 5 3 8 11 7
17 -3 27 2 47 12 47 5 0 8 -4 4 -9 -3 -5 -1 -13 5 -16 6 -4 10 -3 9 2 -4 20 2
24 19 12 14 -11 15 -11 5 1 -17 19 -16 27 2 27 8 0 15 -4 15 -9 0 -14 34 23
36 38 1 8 -5 22 -14 32 -10 10 -16 16 -15 14z m-37 -60 c0 -8 -1 -13 -3 -11
-1 2 -9 12 -16 22 -12 15 -12 17 3 11 9 -3 16 -13 16 -22z m-57 -26 c4 -10 1
-13 -8 -9 -8 3 -12 9 -9 14 7 12 11 11 17 -5z m-73 -96 c-6 -11 -15 -20 -21
-20 -6 0 -7 -5 -3 -12 4 -6 3 -8 -3 -5 -11 7 -41 -21 -35 -32 2 -3 -5 -12 -16
-19 -16 -10 -18 -10 -17 5 4 31 15 49 47 73 17 12 28 18 24 11 -4 -6 -3 -11 2
-11 6 0 12 7 16 15 3 8 8 15 11 15 3 0 1 -9 -5 -20z m-125 -150 c-3 -5 -12
-10 -18 -10 -7 0 -6 4 3 10 19 12 23 12 15 0z m-75 -74 c0 -2 -8 -10 -17 -17
-16 -13 -17 -12 -4 4 13 16 21 21 21 13z m-14 -61 c-1 -8 -12 -25 -25 -39 -15
-15 -19 -26 -12 -31 6 -3 9 -11 5 -16 -8 -14 -33 8 -30 26 2 12 54 75 62 75 1
0 1 -7 0 -15z m-60 -129 c1 -8 -10 -25 -24 -38 -15 -13 -20 -15 -13 -5 7 9 10
17 6 17 -5 0 -1 8 8 18 10 10 15 22 12 25 -3 4 -2 5 2 2 4 -3 8 -12 9 -19z
m-41 -115 c3 -5 2 -12 -3 -15 -5 -3 -9 1 -9 9 0 17 3 19 12 6z"/>
<path d="M720 3208 c-20 -22 -27 -38 -15 -38 3 0 5 3 6 8 0 4 10 17 21 30 12
12 19 22 16 22 -3 0 -16 -10 -28 -22z"/>
<path d="M529 2923 l-24 -28 28 24 c25 23 32 31 24 31 -2 0 -14 -12 -28 -27z"/>
<path d="M860 3359 c0 -5 5 -7 10 -4 6 3 10 8 10 11 0 2 -4 4 -10 4 -5 0 -10
-5 -10 -11z"/>
<path d="M428 2668 c-4 -12 -2 -76 4 -135 1 -13 6 -23 10 -23 5 0 6 11 4 26
-3 16 0 27 10 31 8 3 14 10 14 15 0 6 -7 5 -15 -2 -24 -20 -27 -6 -5 17 15 17
16 22 5 27 -20 7 -15 45 5 39 13 -4 13 -4 0 6 -20 14 -27 14 -32 -1z m15 -63
c-7 -21 -12 -19 -10 4 0 11 5 18 9 15 4 -3 5 -11 1 -19z"/>
<path d="M450 2640 c0 -5 5 -10 10 -10 6 0 10 5 10 10 0 6 -4 10 -10 10 -5 0
-10 -4 -10 -10z"/>
<path d="M1124 3408 c-4 -6 -3 -8 4 -4 5 3 12 1 14 -5 2 -7 9 -10 16 -8 8 3 5
9 -7 16 -15 9 -22 10 -27 1z"/>
<path d="M1220 3401 c5 -11 15 -23 21 -27 6 -3 3 5 -6 20 -20 30 -30 35 -15 7z"/>
<path d="M1119 3377 c6 -8 7 -18 3 -22 -4 -5 -2 -5 5 -1 14 8 6 36 -9 36 -7 0
-6 -5 1 -13z"/>
<path d="M1188 3383 c7 -3 16 -2 19 1 4 3 -2 6 -13 5 -11 0 -14 -3 -6 -6z"/>
<path d="M1404 3371 c4 -6 3 -17 -3 -24 -7 -10 -4 -13 12 -14 12 0 17 1 10 4
-7 2 -10 10 -7 18 3 7 0 16 -7 21 -8 4 -10 3 -5 -5z"/>
<path d="M1135 3260 c3 -5 8 -10 11 -10 2 0 4 5 4 10 0 6 -5 10 -11 10 -5 0
-7 -4 -4 -10z"/>
<path d="M1140 3226 c7 -7 13 -7 20 0 6 6 3 10 -10 10 -13 0 -16 -4 -10 -10z"/>
<path d="M1150 3200 c0 -5 5 -10 11 -10 5 0 7 5 4 10 -3 6 -8 10 -11 10 -2 0
-4 -4 -4 -10z"/>
<path d="M1130 3183 c0 -4 4 -15 10 -23 5 -8 5 -19 0 -25 -10 -12 -8 -34 3
-52 10 -15 27 -17 27 -3 0 6 -3 9 -7 9 -21 -3 -24 3 -12 18 10 11 10 14 2 9
-7 -4 -13 -3 -13 3 0 5 4 12 9 15 10 7 3 44 -10 52 -5 3 -9 2 -9 -3z"/>
<path d="M1130 3061 c0 -5 5 -13 10 -16 6 -3 10 -2 10 4 0 5 -4 13 -10 16 -5
3 -10 2 -10 -4z"/>
<path d="M1125 2961 c-6 -11 13 -26 22 -17 4 3 0 6 -8 6 -11 0 -11 2 1 10 9 6
10 10 3 10 -6 0 -14 -4 -18 -9z"/>
<path d="M1075 2749 c-4 -6 -4 -13 -1 -16 3 -3 1 -11 -4 -18 -7 -8 -6 -12 3
-12 8 0 13 12 13 29 0 31 -1 33 -11 17z"/>
<path d="M1075 2680 c3 -5 8 -10 11 -10 2 0 4 5 4 10 0 6 -5 10 -11 10 -5 0
-7 -4 -4 -10z"/>
<path d="M1025 2640 c-3 -5 -1 -10 5 -10 6 0 3 -12 -7 -26 -17 -27 -17 -27 5
-15 12 7 20 16 17 21 -3 5 -1 11 5 15 11 7 4 25 -10 25 -5 0 -12 -4 -15 -10z"/>
<path d="M1465 3350 c3 -5 11 -10 16 -10 6 0 7 5 4 10 -3 6 -11 10 -16 10 -6
0 -7 -4 -4 -10z"/>
<path d="M1896 3211 c-4 -5 1 -8 9 -7 21 3 31 16 12 16 -9 0 -18 -4 -21 -9z"/>
<path d="M3940 2920 c0 -5 5 -10 11 -10 5 0 7 5 4 10 -3 6 -8 10 -11 10 -2 0
-4 -4 -4 -10z"/>
<path d="M1533 2435 c3 -6 -1 -19 -9 -30 -8 -10 -14 -14 -14 -9 0 6 -7 11 -15
11 -8 0 -11 -5 -8 -10 4 -6 -1 -8 -11 -4 -10 4 -15 3 -11 -4 4 -5 16 -7 27 -3
15 4 19 3 13 -7 -3 -8 2 -4 13 8 11 12 22 20 25 17 3 -3 4 1 3 10 -1 8 -6 19
-11 23 -4 4 -6 3 -2 -2z"/>
<path d="M3417 2279 c4 -13 8 -18 11 -10 2 7 -1 18 -6 23 -8 8 -9 4 -5 -13z"/>
<path d="M3510 2284 c0 -8 5 -12 10 -9 6 4 8 11 5 16 -9 14 -15 11 -15 -7z"/>
<path d="M3556 2285 c5 -12 9 -13 14 -5 5 8 9 7 13 -4 3 -8 1 -17 -6 -20 -7
-3 0 -3 16 -1 15 2 27 -1 27 -7 0 -6 3 -9 6 -5 11 10 -30 52 -53 55 -18 3 -21
-1 -17 -13z"/>
<path d="M3386 2271 c-3 -5 1 -11 9 -15 8 -3 15 -1 15 4 0 13 -18 22 -24 11z"/>
<path d="M3318 2163 c-6 -7 -7 -13 -3 -13 4 0 2 -7 -5 -15 -7 -8 -9 -15 -4
-15 4 0 0 -6 -9 -12 -12 -9 -14 -17 -7 -28 5 -8 13 -11 17 -6 4 5 2 11 -5 13
-10 4 -7 9 7 20 12 8 19 18 16 23 -3 4 6 17 21 27 24 18 24 19 4 19 -12 0 -26
-6 -32 -13z"/>
<path d="M3177 1796 c-4 -10 1 -12 14 -9 23 6 24 9 5 16 -8 3 -17 0 -19 -7z"/>
<path d="M730 3661 c0 -8 -7 -11 -15 -7 -8 3 -14 0 -12 -6 2 -14 -25 -18 -34
-5 -3 5 -9 1 -12 -8 -4 -9 -3 -13 3 -10 5 3 8 -4 7 -16 l-1 -21 -18 22 c-19
24 -24 19 -9 -9 7 -13 6 -18 -4 -18 -8 0 -12 4 -9 8 2 4 0 10 -5 13 -5 3 -20
-7 -34 -23 -14 -17 -28 -27 -32 -23 -5 4 -5 -1 -2 -11 6 -15 2 -18 -16 -15
-13 2 -21 -2 -20 -9 2 -7 -2 -13 -8 -13 -6 0 -9 -6 -6 -14 4 -10 -1 -13 -21
-11 -25 3 -25 2 -7 -11 11 -8 26 -12 33 -9 10 4 12 0 8 -12 -5 -15 -4 -15 9 1
8 11 15 24 15 29 0 4 6 5 13 1 6 -4 9 -4 5 0 -8 10 14 36 25 29 4 -2 7 1 7 7
0 7 7 10 14 7 9 -4 13 -1 11 6 -7 19 11 41 30 34 9 -4 13 -12 9 -18 -4 -8 -3
-9 5 -5 9 6 9 11 -1 23 -11 14 -10 15 12 10 14 -4 19 -4 12 -1 -6 3 -9 10 -6
16 3 5 15 2 27 -9 20 -17 21 -17 8 0 -17 22 -9 30 31 33 20 2 27 0 19 -5 -8
-6 -9 -11 -3 -15 6 -3 13 0 15 6 4 10 8 9 17 -2 10 -13 11 -13 7 1 -4 12 2 16
24 16 16 0 25 -5 22 -10 -4 -6 -1 -7 6 -3 7 5 18 1 25 -10 9 -12 15 -14 20 -5
4 6 0 14 -8 17 -9 3 -14 10 -11 14 3 4 -3 7 -12 6 -10 0 -18 5 -18 13 0 20
-92 24 -99 5 -3 -8 -13 -14 -23 -14 -15 0 -15 2 3 14 10 8 16 18 11 22 -4 4
-7 2 -7 -5z m51 -31 c6 0 8 3 6 8 -3 4 8 7 24 7 19 1 26 -2 19 -9 -6 -6 -28
-11 -50 -11 -32 -1 -37 1 -27 13 7 9 13 10 15 3 2 -6 8 -11 13 -11z m-71 -6
c0 -8 -19 -13 -24 -6 -3 5 1 9 9 9 8 0 15 -2 15 -3z m-96 -39 c-4 -8 -10 -15
-15 -15 -5 0 -9 -5 -9 -11 0 -5 6 -7 13 -3 6 4 -8 -13 -33 -37 -25 -24 -48
-40 -52 -34 -4 5 -3 14 2 21 6 6 6 15 2 20 -4 4 1 3 10 -4 14 -12 19 -9 34 15
19 30 45 63 50 63 2 0 1 -7 -2 -15z"/>
<path d="M716 3598 c3 -4 9 -8 15 -8 5 0 9 4 9 8 0 5 -7 9 -15 9 -8 0 -12 -4
-9 -9z"/>
<path d="M460 3455 c8 -9 8 -15 0 -20 -5 -3 -10 -1 -10 5 0 6 -5 8 -11 5 -6
-5 -4 -12 8 -21 17 -13 17 -14 -1 -7 -16 5 -18 3 -13 -18 5 -22 5 -22 -7 -6
-13 17 -14 17 -21 0 -5 -10 -7 -24 -6 -32 1 -7 -1 -11 -6 -8 -4 3 -17 -1 -28
-9 -13 -10 -15 -14 -4 -14 11 0 11 -2 1 -9 -11 -7 -10 -9 3 -15 9 -3 14 -10
11 -15 -3 -5 0 -14 7 -20 11 -8 13 -6 13 12 -1 12 4 21 11 20 8 -2 10 4 6 14
-5 13 -2 15 13 10 18 -7 18 -6 2 7 -20 15 -23 32 -8 41 5 3 7 0 4 -8 -3 -8 2
-17 12 -21 15 -6 15 -4 3 11 -12 15 -12 16 3 10 13 -4 15 -2 11 11 -6 15 -5
16 13 2 15 -11 16 -11 7 0 -16 17 -17 34 -3 25 6 -4 9 -1 8 6 -2 6 3 14 11 17
9 3 11 0 6 -8 -5 -9 -4 -11 3 -6 17 10 -2 42 -28 49 -17 4 -19 3 -10 -8z m30
-9 c0 -2 -8 -10 -17 -17 -16 -13 -17 -12 -4 4 13 16 21 21 21 13z m-90 -116
c-6 -4 -11 -10 -11 -14 1 -3 -2 -6 -6 -6 -8 0 -12 20 -6 32 2 4 11 4 19 1 11
-4 12 -8 4 -13z"/>
<path d="M330 3306 c0 -4 7 -14 15 -22 8 -9 15 -20 15 -27 0 -6 -7 -2 -15 9
-9 12 -14 14 -15 6 0 -8 -5 -10 -12 -6 -7 4 -10 4 -6 -1 4 -4 3 -14 -3 -21 -7
-8 -7 -14 1 -19 5 -3 10 -3 10 1 0 4 12 -3 27 -17 15 -13 21 -16 14 -6 -12 15
-11 17 5 18 18 0 18 1 -1 9 -18 7 -18 8 -3 15 13 5 15 11 8 25 -5 9 -6 21 -2
26 4 5 3 6 -2 2 -5 -4 -15 -3 -23 3 -7 6 -13 8 -13 5z m16 -72 c2 -11 -1 -12
-10 -5 -7 6 -17 7 -22 3 -4 -4 -2 1 5 11 15 19 24 16 27 -9z"/>
<path d="M2361 3238 c-1 -22 15 -31 35 -20 14 8 13 10 -2 23 -11 9 -15 9 -10
2 4 -7 3 -13 -3 -13 -5 0 -12 6 -14 13 -3 7 -6 6 -6 -5z"/>
<path d="M2320 3223 c8 -3 23 -12 33 -21 9 -8 17 -11 17 -6 0 17 -23 34 -44
33 -15 0 -17 -2 -6 -6z"/>
<path d="M315 3200 c3 -5 8 -10 11 -10 2 0 4 5 4 10 0 6 -5 10 -11 10 -5 0 -7
-4 -4 -10z"/>
<path d="M1515 2970 c-3 -5 -1 -10 4 -10 6 0 11 5 11 10 0 6 -2 10 -4 10 -3 0
-8 -4 -11 -10z"/>
<path d="M2120 2940 c0 -6 7 -10 15 -10 8 0 15 2 15 4 0 2 -7 6 -15 10 -8 3
-15 1 -15 -4z"/>
<path d="M1987 2914 c3 -8 10 -13 15 -12 16 6 14 21 -4 24 -11 1 -15 -3 -11
-12z"/>
<path d="M2130 2916 c0 -2 7 -7 16 -10 8 -3 12 -2 9 4 -6 10 -25 14 -25 6z"/>
<path d="M3298 2796 c-14 -17 -35 -32 -46 -32 -19 0 -20 2 -7 16 8 9 12 20 8
23 -10 11 -33 8 -33 -4 0 -5 4 -7 10 -4 6 3 7 -1 4 -9 -3 -9 -9 -14 -13 -12
-4 3 -7 -3 -7 -13 0 -14 7 -17 29 -15 20 3 26 0 21 -9 -4 -7 -3 -8 2 -4 5 5 9
14 9 20 0 5 6 12 14 15 8 3 11 0 7 -6 -7 -12 19 -10 31 2 4 4 3 6 -3 4 -7 -1
-11 2 -10 7 0 6 10 9 21 7 20 -3 20 -3 0 12 -22 16 -1 17 24 2 10 -6 12 -5 7
2 -19 32 -42 31 -68 -2z"/>
<path d="M2777 2813 c-10 -9 -9 -23 1 -23 5 0 9 7 9 15 0 17 -1 18 -10 8z"/>
<path d="M4090 2800 c0 -5 5 -10 10 -10 6 0 10 5 10 10 0 6 -4 10 -10 10 -5 0
-10 -4 -10 -10z"/>
<path d="M1393 2762 c-12 -8 -3 -34 12 -34 11 0 25 25 19 34 -6 10 -15 10 -31
0z"/>
<path d="M2746 2685 c1 -19 -1 -33 -6 -30 -4 3 -13 -2 -20 -10 -8 -9 -8 -15
-2 -15 6 0 12 3 15 8 2 4 2 1 1 -6 -2 -7 3 -15 11 -18 8 -4 15 -11 15 -17 0
-5 -8 -3 -17 5 -30 24 -48 17 -47 -20 2 -25 -1 -30 -11 -22 -18 15 -32 -8 -29
-50 3 -46 4 -49 13 -25 5 12 4 26 -3 35 -10 13 -9 13 7 1 10 -8 17 -9 17 -3 0
6 -7 15 -16 20 -11 6 -13 11 -5 16 6 4 14 0 17 -9 5 -12 9 -13 20 -4 11 9 17
9 28 0 10 -8 16 -9 21 -1 4 6 1 9 -6 8 -7 -2 -15 6 -17 17 -4 18 -3 18 14 5
10 -8 15 -10 11 -3 -4 6 -3 14 3 18 6 3 8 17 6 31 -3 16 2 28 17 39 12 8 16
16 9 16 -27 3 -31 4 -39 13 -5 5 -3 6 5 2 6 -4 12 -3 12 2 0 6 10 8 23 5 20
-4 20 -3 4 7 -10 7 -21 9 -24 6 -4 -3 -12 -1 -18 4 -9 8 -12 1 -9 -25z m34
-19 c0 -2 -8 -10 -17 -17 -16 -13 -17 -12 -4 4 13 16 21 21 21 13z m-40 -72
c7 -7 2 -10 -13 -10 -13 0 -24 5 -24 12 0 14 23 12 37 -2z"/>
<path d="M1754 2649 c-7 -11 13 -29 31 -28 6 0 4 3 -3 6 -6 2 -10 9 -7 13 3 5
1 11 -4 14 -5 4 -13 1 -17 -5z"/>
<path d="M1751 2569 c13 -12 15 -19 7 -27 -8 -8 -5 -10 7 -8 10 1 20 13 22 25
2 18 0 22 -13 17 -9 -4 -22 -3 -28 1 -7 5 -4 1 5 -8z"/>
<path d="M2086 2542 c-3 -5 1 -15 8 -21 11 -10 14 -9 12 3 -3 21 -13 29 -20
18z"/>
<path d="M2694 2508 c-9 -18 -35 -50 -58 -70 -23 -21 -37 -38 -32 -38 4 0 1
-11 -8 -24 -11 -17 -12 -27 -5 -32 13 -8 30 16 22 29 -3 5 5 6 18 2 23 -7 23
-6 5 7 -19 15 -15 38 7 38 8 0 8 -3 -2 -9 -9 -6 -10 -11 -2 -15 6 -4 11 -4 12
1 3 31 10 49 23 59 9 6 16 17 16 23 0 7 5 9 10 6 6 -4 10 -3 9 2 -4 24 2 43
13 37 7 -4 8 -3 4 4 -11 17 -14 15 -32 -20z"/>
<path d="M2350 2521 c0 -9 38 -12 44 -3 2 4 -7 8 -20 8 -13 1 -24 -1 -24 -5z"/>
<path d="M3050 2499 c0 -5 5 -7 10 -4 6 3 10 8 10 11 0 2 -4 4 -10 4 -5 0 -10
-5 -10 -11z"/>
<path d="M3939 2479 c-15 -13 -18 -19 -8 -16 9 3 23 0 30 -6 11 -10 11 -9 1 4
-9 12 -9 18 0 27 20 20 1 13 -23 -9z"/>
<path d="M1756 2475 c-9 -26 -7 -32 5 -12 6 10 9 21 6 23 -2 3 -7 -2 -11 -11z"/>
<path d="M2075 2480 c-3 -5 -1 -10 4 -10 6 0 11 5 11 10 0 6 -2 10 -4 10 -3 0
-8 -4 -11 -10z"/>
<path d="M2356 2461 c-3 -5 1 -11 9 -14 9 -4 12 -1 8 9 -6 16 -10 17 -17 5z"/>
<path d="M4515 2460 c3 -5 8 -10 11 -10 2 0 4 5 4 10 0 6 -5 10 -11 10 -5 0
-7 -4 -4 -10z"/>
<path d="M2070 2450 c0 -5 5 -10 11 -10 5 0 7 5 4 10 -3 6 -8 10 -11 10 -2 0
-4 -4 -4 -10z"/>
<path d="M2983 2439 c-12 -12 -32 -23 -44 -24 -12 -1 -23 -9 -25 -18 -3 -21
10 -22 30 -1 14 14 17 11 15 -13 0 -5 -7 -7 -15 -5 -11 2 -12 -2 -3 -22 7 -14
16 -23 22 -19 5 3 3 9 -4 14 -13 8 -5 13 14 10 5 -1 6 3 3 8 -4 5 4 17 16 25
12 9 16 16 9 16 -8 0 -3 9 10 21 13 11 19 18 12 15 -6 -4 -13 -2 -15 4 -2 6
-13 1 -25 -11z m14 -10 c-9 -6 -15 -14 -12 -19 3 -5 1 -11 -4 -14 -5 -4 -8 0
-7 6 3 21 16 38 29 38 7 0 4 -5 -6 -11z"/>
<path d="M4511 2416 c-8 -10 -9 -16 -1 -21 6 -3 8 -10 5 -15 -3 -4 2 -11 10
-14 13 -4 13 -2 5 14 -5 10 -7 26 -4 34 8 20 0 21 -15 2z"/>
<path d="M3875 2400 c3 -5 8 -10 11 -10 2 0 4 5 4 10 0 6 -5 10 -11 10 -5 0
-7 -4 -4 -10z"/>
<path d="M3790 2382 c0 -4 10 -9 22 -9 18 -2 20 0 8 7 -18 12 -30 13 -30 2z"/>
<path d="M5135 2381 c-6 -11 13 -26 22 -17 4 3 1 6 -6 6 -7 0 -9 5 -6 10 3 6
4 10 1 10 -3 0 -7 -4 -11 -9z"/>
<path d="M2033 2365 c0 -8 4 -15 9 -15 4 0 8 4 8 9 0 6 -4 12 -8 15 -5 3 -9
-1 -9 -9z"/>
<path d="M2889 2374 c-1 -2 -2 -8 -3 -13 0 -5 -17 -28 -36 -52 -19 -24 -33
-52 -32 -62 2 -11 -1 -17 -7 -13 -10 7 -57 -48 -63 -74 -2 -9 6 -15 22 -16 14
-1 34 -4 45 -8 17 -7 18 -6 3 4 -11 6 -15 17 -11 28 6 15 5 16 -12 2 -10 -8
-16 -10 -12 -3 4 6 3 13 -3 15 -6 2 -6 8 0 18 8 13 10 12 10 -3 0 -10 4 -16 9
-12 6 3 8 14 6 25 -2 13 1 17 10 14 8 -3 26 6 40 20 22 22 24 29 14 47 -8 17
-8 20 1 14 7 -4 26 -9 42 -10 21 -2 27 0 19 8 -18 18 -13 31 6 16 15 -12 16
-12 8 1 -9 14 -11 19 -14 39 -1 9 -40 23 -42 15z m37 -26 c4 -7 3 -8 -4 -4 -7
4 -12 2 -12 -5 0 -7 -3 -10 -6 -6 -6 5 3 27 11 27 2 0 7 -5 11 -12z m-6 -46
c0 -1 -8 2 -19 7 -10 6 -21 7 -25 4 -3 -3 -6 -2 -6 4 0 19 12 21 31 5 10 -9
19 -18 19 -20z m-65 -23 c-5 -28 -11 -33 -25 -24 -8 5 -6 13 6 26 22 24 24 24
19 -2z m-94 -122 c-10 -9 -11 -8 -5 6 3 10 9 15 12 12 3 -3 0 -11 -7 -18z"/>
<path d="M781 2346 c-10 -11 -9 -14 1 -12 14 2 23 15 15 22 -2 2 -10 -2 -16
-10z"/>
<path d="M1535 2349 c-4 -6 -5 -12 -2 -15 2 -3 7 2 10 11 7 17 1 20 -8 4z"/>
<path d="M5136 2341 c-4 -5 -2 -12 3 -15 5 -4 12 -2 15 3 4 5 2 12 -3 15 -5 4
-12 2 -15 -3z"/>
<path d="M4509 2323 c-3 -28 -9 -47 -17 -52 -7 -4 -5 -14 4 -25 13 -19 20 -11
15 18 -1 4 3 14 9 21 8 10 7 14 -2 18 -10 4 -10 6 0 6 14 1 17 21 2 21 -5 0
-10 -3 -11 -7z"/>
<path d="M1395 2310 c-3 -5 -3 -10 2 -11 4 0 16 -2 26 -4 22 -4 22 2 -2 15
-13 7 -22 7 -26 0z"/>
<path d="M5146 2294 c-5 -14 -4 -15 9 -4 17 14 19 20 6 20 -5 0 -12 -7 -15
-16z"/>
<path d="M2883 2274 c0 -8 4 -14 9 -14 4 0 8 4 8 10 0 5 8 7 18 3 9 -3 14 -3
11 1 -13 14 -46 14 -46 0z"/>
<path d="M1700 2260 c0 -5 5 -10 11 -10 5 0 7 5 4 10 -3 6 -8 10 -11 10 -2 0
-4 -4 -4 -10z"/>
<path d="M705 2250 c-3 -6 1 -7 9 -4 18 7 21 14 7 14 -6 0 -13 -4 -16 -10z"/>
<path d="M2845 2226 c-30 -22 -43 -46 -25 -46 5 0 8 -6 6 -12 -1 -7 -1 -10 1
-5 3 4 10 4 16 0 7 -4 5 2 -3 12 -14 17 -13 18 3 12 10 -4 16 -3 12 2 -3 5 1
12 7 14 10 4 10 6 0 6 -7 1 -10 6 -7 11 4 7 14 6 28 -1 20 -9 20 -9 5 4 -10 8
-15 17 -11 20 12 13 -2 5 -32 -17z"/>
<path d="M1932 2199 c-8 -12 -9 -18 -4 -15 6 3 13 -1 16 -10 3 -8 11 -12 17
-8 8 4 9 3 5 -4 -7 -12 -41 1 -59 23 -5 6 -6 2 -3 -8 3 -10 6 -21 6 -23 0 -3
4 -3 9 1 6 3 15 -4 21 -15 6 -11 15 -18 21 -15 5 4 7 10 4 15 -3 4 2 13 10 20
12 10 12 15 -2 36 -19 29 -25 30 -41 3z m25 4 c-4 -3 1 -12 11 -20 15 -13 15
-13 -6 -3 -19 9 -23 30 -5 30 4 0 3 -3 0 -7z"/>
<path d="M1299 2163 c-1 -4 -1 -11 0 -15 0 -5 -5 -8 -12 -8 -7 0 -18 -9 -25
-21 -9 -14 -10 -19 -2 -14 9 5 10 1 5 -14 -5 -17 -3 -20 12 -15 13 5 12 2 -4
-10 -24 -18 -30 -36 -12 -36 5 0 7 5 4 10 -3 6 -2 10 4 10 5 0 12 -6 15 -12 3
-7 4 -4 3 7 -1 12 3 19 11 17 7 -1 15 5 18 13 3 8 9 13 13 10 4 -2 7 6 7 18
-1 16 4 21 19 19 16 -2 17 -1 5 7 -11 7 -20 5 -36 -10 -12 -11 -28 -17 -37
-13 -13 5 -12 9 10 28 18 16 23 25 15 30 -7 4 -13 4 -13 -1z m14 -78 c-3 -9
-8 -14 -10 -11 -3 3 -2 9 2 15 9 16 15 13 8 -4z"/>
<path d="M1874 2159 c-4 -7 -3 -10 4 -5 20 12 20 -9 -1 -29 l-20 -20 7 20 c7
20 7 20 -12 0 -20 -22 -25 -55 -8 -55 6 0 5 -4 -3 -9 -15 -10 -45 -8 -75 5
-15 5 -17 4 -11 -6 6 -9 4 -11 -4 -5 -23 14 5 28 29 15 17 -9 25 -9 34 1 8 9
7 11 -6 6 -10 -4 -18 -2 -18 3 0 6 5 10 10 10 6 0 10 5 10 11 0 6 -5 7 -12 2
-7 -4 -22 -9 -33 -11 -11 -2 -27 -5 -35 -7 -8 -1 -21 2 -27 8 -9 6 -13 6 -13
-2 0 -6 5 -11 11 -11 5 0 7 -5 4 -10 -3 -6 1 -13 9 -16 9 -3 13 -11 9 -17 -4
-6 -1 -7 8 -1 22 14 59 16 59 3 0 -8 4 -9 13 0 10 7 17 7 24 0 19 -19 32 -1
28 38 -2 24 0 32 6 22 7 -11 9 -11 9 -1 0 7 5 10 11 6 6 -3 7 -9 3 -13 -13 -9
-17 -44 -5 -36 6 3 11 14 11 23 0 15 2 15 10 2 6 -9 10 -11 10 -3 0 7 7 10 18
7 14 -5 15 -4 2 5 -13 9 -13 12 -1 20 10 6 11 13 2 27 -6 11 -11 15 -11 10 0
-5 -9 -1 -19 8 -14 13 -21 14 -27 5z m29 -36 c-6 -16 -5 -17 12 -3 17 14 17
14 4 -7 -8 -14 -17 -19 -23 -13 -8 8 -2 40 8 40 3 0 2 -8 -1 -17z m-170 -57
c4 -10 1 -13 -8 -9 -8 3 -12 9 -9 14 7 12 11 11 17 -5z"/>
<path d="M2766 2130 c-11 -3 -15 -9 -10 -12 23 -13 44 -16 49 -9 8 14 -19 29
-39 21z"/>
<path d="M2735 2100 c-4 -6 -13 -9 -19 -7 -7 3 -19 1 -27 -4 -12 -7 -12 -9 0
-9 10 0 7 -8 -10 -27 -32 -36 -37 -78 -10 -92 14 -8 22 -8 27 1 4 7 3 8 -4 4
-7 -4 -12 -3 -12 2 0 16 13 22 26 11 8 -7 14 -7 19 1 4 6 2 9 -3 8 -6 -2 -9 2
-8 7 0 6 7 9 13 9 7 -1 11 2 8 6 -8 13 6 40 17 34 6 -4 5 4 -2 16 -9 17 -9 25
0 34 8 8 10 7 5 -5 -4 -10 -2 -20 3 -23 5 -3 9 4 8 16 -1 24 -20 35 -31 18z
m-13 -32 c-7 -7 -12 -19 -12 -27 0 -11 4 -10 16 5 15 19 15 19 5 -1 -13 -27
-51 -62 -51 -46 0 7 -4 10 -9 7 -23 -14 -1 30 25 51 31 24 46 31 26 11z"/>
<path d="M2681 2036 c-9 -10 -9 -16 -1 -21 16 -10 31 7 21 23 -6 10 -10 10
-20 -2z"/>
<path d="M3843 2095 c0 -8 4 -12 9 -9 4 3 8 9 8 15 0 5 -4 9 -8 9 -5 0 -9 -7
-9 -15z"/>
<path d="M1175 2090 c-4 -6 -10 -8 -15 -5 -5 3 -11 2 -14 -3 -2 -4 4 -8 14 -9
10 -1 21 5 24 13 6 16 0 19 -9 4z"/>
<path d="M1226 2082 c-2 -4 -1 -14 4 -21 10 -17 31 -5 23 14 -6 16 -19 20 -27
7z"/>
<path d="M2273 2065 c4 -4 -1 -17 -10 -28 -10 -11 -12 -17 -5 -13 13 8 13 8
16 -46 1 -20 0 -37 -3 -36 -3 0 -9 -1 -13 -2 -11 -4 -27 -7 -36 -9 -12 -1 -11
-31 0 -31 5 0 6 -5 2 -12 -4 -7 -3 -8 4 -4 6 4 8 14 5 23 -4 10 -2 14 4 10 6
-4 14 0 17 8 3 8 11 14 17 13 12 -3 15 8 23 74 3 27 0 41 -12 50 -10 7 -14 8
-9 3z m14 -30 c0 -8 -4 -12 -9 -9 -5 3 -6 10 -3 15 9 13 12 11 12 -6z"/>
<path d="M1758 2023 c7 -3 16 -2 19 1 4 3 -2 6 -13 5 -11 0 -14 -3 -6 -6z"/>
<path d="M5026 2014 c-9 -24 -7 -27 7 -15 10 8 17 7 25 -1 7 -7 12 -8 12 -2 0
5 -9 15 -19 21 -16 10 -20 9 -25 -3z"/>
<path d="M2245 1993 c3 -11 -1 -13 -15 -8 -15 5 -19 2 -18 -12 2 -10 -1 -19
-5 -20 -19 -3 -65 -56 -60 -69 3 -8 9 -11 14 -8 5 3 9 0 9 -6 0 -6 4 -9 9 -5
5 3 8 20 6 38 -2 17 -1 26 2 20 2 -7 9 -13 14 -13 6 0 8 4 5 9 -7 11 20 34 32
27 6 -3 16 2 23 11 12 14 11 15 -8 9 -13 -4 -24 -2 -29 5 -4 7 -3 9 4 6 14
-10 39 1 39 17 0 7 -7 13 -14 13 -8 0 -11 -7 -8 -14z m-75 -93 c0 -5 -5 -10
-11 -10 -5 0 -7 5 -4 10 3 6 8 10 11 10 2 0 4 -4 4 -10z"/>
<path d="M4346 1963 c-6 -14 -5 -15 5 -6 7 7 10 15 7 18 -3 3 -9 -2 -12 -12z"/>
<path d="M4630 1909 c0 -5 5 -7 10 -4 6 3 10 8 10 11 0 2 -4 4 -10 4 -5 0 -10
-5 -10 -11z"/>
<path d="M1062 1887 c-7 -8 -6 -18 5 -32 12 -15 14 -16 10 -3 -3 9 -1 19 6 22
9 3 8 5 -1 5 -7 1 -10 6 -7 11 9 14 -1 12 -13 -3z"/>
<path d="M2201 1900 c-14 -32 9 -65 25 -38 4 6 3 8 -4 4 -6 -3 -12 3 -15 16
-2 13 -5 21 -6 18z"/>
<path d="M2563 1885 c0 -8 4 -12 9 -9 5 3 6 10 3 15 -9 13 -12 11 -12 -6z"/>
<path d="M4603 1878 c-4 -7 -8 -20 -8 -28 0 -8 -5 -14 -12 -13 -18 4 -37 -24
-22 -33 8 -5 9 -3 4 5 -4 7 4 5 19 -4 15 -10 26 -13 26 -6 0 6 -4 11 -10 11
-5 0 -10 5 -10 11 0 8 4 9 13 0 8 -6 17 -7 22 -3 4 4 2 -3 -4 -16 -9 -17 -16
-20 -30 -13 -12 7 -22 6 -31 -2 -10 -9 -11 -9 -6 1 4 6 2 12 -4 12 -7 0 -9 -9
-5 -22 6 -22 5 -22 -9 -5 -14 18 -15 17 -22 -5 -4 -13 -7 -29 -6 -35 2 -8 -3
-10 -13 -7 -11 5 -14 2 -8 -12 5 -13 3 -16 -10 -11 -10 4 -21 -1 -29 -12 -7
-9 -21 -20 -31 -24 -10 -4 -15 -11 -12 -17 3 -5 1 -10 -4 -10 -6 0 -11 -4 -11
-10 0 -5 3 -9 8 -9 28 5 36 -10 20 -36 -4 -6 -2 -17 4 -25 8 -12 9 -12 4 2 -6
20 10 34 17 16 3 -7 4 -1 3 13 -1 15 -10 34 -19 44 -9 9 -17 19 -17 22 0 4 3
3 7 0 3 -4 13 -1 22 6 14 10 14 10 4 -4 -19 -24 -4 -30 18 -8 13 13 27 18 40
14 10 -4 19 -2 19 4 0 6 8 8 18 4 9 -3 14 -3 11 1 -11 12 -50 16 -43 4 4 -7 3
-8 -4 -4 -6 4 -8 14 -5 22 3 9 9 12 12 7 10 -13 48 -11 48 3 0 7 -4 11 -9 8
-4 -3 -8 0 -8 5 0 14 27 14 32 1 2 -6 9 0 17 12 13 21 13 22 -1 10 -13 -10
-17 -10 -22 4 -11 29 11 40 35 18 13 -10 19 -14 15 -7 -9 16 23 65 38 56 6 -3
7 -2 3 3 -5 5 -13 10 -18 10 -5 1 -14 2 -20 3 -5 0 -8 5 -4 10 3 5 1 13 -5 16
-8 5 -7 11 1 21 6 8 9 14 6 14 -3 0 -9 -6 -14 -12z m-66 -140 c-16 -9 -27 0
-21 17 5 11 9 12 19 2 9 -8 10 -14 2 -19z m-66 -61 c-13 -13 -26 -3 -16 12 3
6 11 8 17 5 6 -4 6 -10 -1 -17z"/>
<path d="M4145 1790 c-7 -11 22 -26 32 -16 4 3 -1 6 -11 6 -9 0 -14 5 -11 10
3 6 4 10 1 10 -3 0 -8 -5 -11 -10z"/>
<path d="M975 1756 c-16 -18 -18 -25 -8 -34 16 -16 28 -15 15 1 -11 13 10 41
22 29 4 -3 4 1 0 11 -8 21 -5 21 -29 -7z"/>
<path d="M4570 1759 c0 -5 5 -7 10 -4 6 3 10 8 10 11 0 2 -4 4 -10 4 -5 0 -10
-5 -10 -11z"/>
<path d="M2057 1728 c-15 -12 -14 -15 3 -37 22 -25 26 -21 10 10 -12 21 -1 25
19 7 11 -10 13 -10 7 0 -4 7 -2 12 6 12 9 0 9 3 -2 10 -20 13 -23 12 -43 -2z"/>
<path d="M3903 1720 c-3 -11 -9 -21 -14 -21 -5 -1 -15 -2 -21 -3 -14 -1 -20
-126 -6 -126 4 0 7 3 7 8 -4 24 2 42 13 36 6 -4 8 -3 5 3 -7 11 20 28 38 24 5
-1 1 8 -10 20 -14 16 -16 23 -7 26 6 3 9 10 5 16 -4 7 1 6 10 -2 12 -9 17 -10
17 -2 0 6 -7 14 -16 18 -13 5 -13 7 -2 14 11 7 11 9 0 9 -8 0 -16 -9 -19 -20z
m-18 -59 c-6 -5 -25 10 -25 20 0 5 6 4 14 -3 8 -7 12 -15 11 -17z m25 -6 c0
-2 -9 -9 -20 -15 -12 -6 -20 -7 -20 -1 0 5 8 12 18 14 9 3 18 5 20 6 1 0 2 -1
2 -4z"/>
<path d="M840 1669 c0 -5 5 -7 10 -4 6 3 10 8 10 11 0 2 -4 4 -10 4 -5 0 -10
-5 -10 -11z"/>
<path d="M3834 1663 c4 -7 3 -13 -2 -13 -5 0 -29 -18 -54 -40 -25 -21 -49 -36
-53 -32 -5 4 -5 1 0 -7 4 -8 2 -17 -6 -23 -11 -7 -9 -8 5 -4 13 5 17 2 13 -8
-4 -11 -1 -13 10 -9 11 4 14 2 9 -5 -4 -7 -2 -12 3 -12 6 0 11 5 11 11 0 8 5
7 15 -1 13 -11 14 -10 9 5 -5 12 -4 16 3 12 6 -4 13 0 17 8 3 9 12 12 23 8 17
-5 17 -5 0 8 -18 14 -15 49 3 49 11 0 6 47 -5 58 -4 4 -5 1 -1 -5z m2 -35 c4
-7 3 -8 -4 -4 -7 4 -12 2 -12 -3 0 -6 -7 -11 -15 -11 -8 0 -15 -5 -15 -11 0
-5 4 -8 8 -5 4 2 9 -6 10 -18 2 -31 -40 -52 -60 -29 -11 13 -6 21 31 54 49 44
47 43 57 27z"/>
<path d="M3760 1575 c-9 -10 -10 -19 -4 -25 13 -13 49 13 40 28 -10 16 -21 15
-36 -3z"/>
<path d="M4469 1649 c-8 -5 -9 -9 -4 -9 6 0 3 -5 -5 -10 -13 -9 -13 -10 0 -10
12 0 12 -2 1 -9 -9 -6 -10 -11 -2 -15 10 -6 15 6 12 27 -1 7 15 11 32 8 4 0 7
3 7 8 0 14 -25 20 -41 10z"/>
<path d="M2030 1635 c0 -8 2 -15 4 -15 2 0 6 7 10 15 3 8 1 15 -4 15 -6 0 -10
-7 -10 -15z"/>
<path d="M4366 1615 c-3 -8 3 -19 12 -25 15 -10 15 -11 -2 -6 -10 4 -26 1 -35
-6 -13 -10 -14 -10 -3 2 6 8 12 19 12 25 0 5 -4 4 -9 -4 -5 -8 -20 -15 -33
-17 -12 -1 -25 -3 -28 -3 -10 -2 -7 -51 3 -51 4 0 5 -5 1 -12 -4 -7 -3 -8 5
-4 6 4 9 11 7 15 -3 4 5 8 17 8 12 1 17 -1 12 -5 -6 -4 -11 -14 -13 -22 -2 -8
0 -12 4 -8 4 4 14 2 23 -4 13 -10 14 -10 4 2 -16 18 -17 34 -1 24 7 -4 8 -3 4
4 -7 11 4 15 46 15 10 0 15 6 13 18 -2 10 0 21 5 24 5 3 7 12 3 21 -4 12 -8
12 -21 2 -11 -9 -13 -9 -9 -1 4 6 3 14 -2 17 -5 3 -11 -1 -15 -9z m-21 -56 c8
14 25 14 25 0 0 -5 -4 -8 -9 -4 -5 3 -12 1 -15 -4 -8 -13 -43 -2 -50 15 -4 11
-1 11 18 -2 16 -10 26 -12 31 -5z m55 7 c0 -3 -4 -8 -10 -11 -5 -3 -10 -1 -10
4 0 6 5 11 10 11 6 0 10 -2 10 -4z"/>
<path d="M3616 1601 c-4 -5 -2 -12 3 -15 5 -4 12 -2 15 3 4 5 2 12 -3 15 -5 4
-12 2 -15 -3z"/>
<path d="M3835 1589 c-4 -6 -5 -12 -2 -15 2 -3 7 2 10 11 7 17 1 20 -8 4z"/>
<path d="M634 1565 c-10 -8 -15 -15 -10 -15 5 0 3 -7 -4 -15 -7 -9 -9 -19 -5
-23 4 -4 10 -1 12 6 3 6 10 9 15 6 7 -4 8 -2 4 4 -4 6 -2 21 4 32 13 24 10 25
-16 5z"/>
<path d="M2383 1540 c-35 -41 -39 -50 -22 -50 5 0 8 3 6 8 -3 4 1 12 8 19 8 7
15 9 18 5 2 -4 2 -2 1 5 -4 17 13 26 20 11 3 -7 3 -2 -1 12 -5 23 -5 24 13 10
18 -14 18 -14 5 3 -7 9 -14 17 -15 17 0 0 -16 -18 -33 -40z"/>
<path d="M2953 1556 c0 -20 2 -24 8 -15 7 12 9 11 10 -1 1 -8 1 -18 1 -21 -1
-3 5 -6 13 -6 8 0 11 5 8 10 -4 6 0 8 10 4 11 -4 14 -2 10 9 -4 11 -9 12 -19
3 -9 -7 -14 -8 -14 -1 0 16 26 22 40 9 10 -10 10 -7 0 12 -11 21 -13 22 -28 8
-14 -15 -17 -15 -27 0 -11 15 -12 13 -12 -11z"/>
<path d="M3035 1560 c3 -5 8 -10 11 -10 2 0 4 5 4 10 0 6 -5 10 -11 10 -5 0
-7 -4 -4 -10z"/>
<path d="M175 1540 c-3 -5 -2 -10 4 -10 5 0 13 5 16 10 3 6 2 10 -4 10 -5 0
-13 -4 -16 -10z"/>
<path d="M1899 1530 c-16 -10 -19 -57 -3 -52 9 2 10 6 13 38 0 9 6 12 13 8 7
-4 8 -3 4 4 -8 14 -7 14 -27 2z"/>
<path d="M407 1493 c4 -10 9 -11 19 -2 16 13 16 13 19 -18 1 -13 -2 -23 -7
-23 -5 0 -6 -5 -2 -11 5 -8 9 -8 14 1 4 7 12 10 17 7 5 -3 15 -2 21 2 18 11 4
41 -18 41 -11 0 -21 4 -25 9 -9 15 -44 9 -38 -6z m78 -33 c-3 -5 -13 -6 -21
-3 -12 4 -13 8 -3 14 15 9 32 2 24 -11z"/>
<path d="M3394 1491 c-2 -2 -4 -10 -4 -18 0 -10 5 -11 18 -4 12 6 22 7 28 1 6
-6 10 -3 11 9 1 14 -5 18 -24 17 -13 0 -27 -3 -29 -5z"/>
</g>
</svg>
